<?xml version="1.0" encoding="UTF-8" standalone="no"?>
<!-- Created with Inkscape (http://www.inkscape.org/) -->

<svg
   width="215.80112mm"
   height="311.49384mm"
   viewBox="0 0 215.80112 311.49384"
   version="1.1"
   id="svg1"
   xmlns="http://www.w3.org/2000/svg"
   xmlns:svg="http://www.w3.org/2000/svg">
  <defs
     id="defs1">
    <clipPath
       clipPathUnits="userSpaceOnUse"
       id="clipPath1">
      <path
         id="path1"
         style="stroke-width:0.264583"
         d="M -64.403282,-19.601 H 198.81013 V 347.68441 H -64.403282 Z" />
    </clipPath>
  </defs>
  <g
     id="layer1"
     transform="translate(16.990982,-14.066214)">
    <path
       style="fill:#000000"
       d="m 87.254898,325.25611 c -1.22308,-0.55784 -99.35972,-59.76514 -101.60998,-61.30281 -0.62271,-0.42552 -1.39523,-1.32022 -1.85208,-2.145 l -0.78377,-1.415 v -30.29479 -30.29479 l 0.70243,-1.19063 c 0.38633,-0.65484 0.98164,-1.44836 1.32291,-1.76336 1.529,-1.41134 100.83868,-61.16977 102.88195,-61.90801 1.20123,-0.434 3.57518,-0.42789 4.80791,0.0124 0.73459,0.26237 19.563052,11.31392 23.171782,13.60091 l 0.59531,0.37728 -0.0114,-11.60596 -0.0114,-11.60595 -12.98558,-7.80521 c -7.142062,-4.29286 -13.085342,-7.84331 -13.207272,-7.88989 -0.20454,-0.0781 -13.08829,7.62955 -49.43423,29.57398 -7.77381,4.69356 -14.60511,8.69989 -15.18066,8.90296 -1.29302,0.4562 -3.44372,0.45832 -4.71318,0.005 -1.26875,-0.45343 -34.74163,-20.68281 -35.88664,-21.68814 -0.49089,-0.43101 -1.1534,-1.27118 -1.47225,-1.86704 l -0.57973,-1.08338 V 101.51101 79.153715 l 0.78377,-1.414993 c 0.45683,-0.824756 1.22939,-1.719514 1.85208,-2.14503 0.58758,-0.40152 8.5097197,-5.229509 17.6047797,-10.728864 20.6767003,-12.50224 79.6185503,-48.05368 82.2798503,-49.628013 1.97002,-1.1654 1.99008,-1.170601 4.5153,-1.170601 h 2.53649 l 5.53886,3.336859 c 3.046382,1.835273 26.069992,15.67677 51.163582,30.758883 25.09359,15.082113 45.89918,27.679879 46.23465,27.995034 0.33547,0.315155 0.90817,1.171489 1.27268,1.902963 l 0.66275,1.329952 v 90.405335 90.40534 l -0.72761,1.39081 c -0.40018,0.76495 -1.14432,1.72033 -1.65364,2.12307 -0.50933,0.40274 -19.4998,11.8936 -42.20104,25.53523 -22.70125,13.64164 -45.55224,27.37431 -50.77996,30.51705 l -9.504972,5.71406 -2.26899,0.0687 c -1.49191,0.0452 -2.54084,-0.0553 -3.06275,-0.29336 z m 0.66146,-11.38239 v -1.68521 l -2.89059,-1.7301 c -1.58983,-0.95155 -2.95905,-1.66165 -3.04271,-1.57798 -0.0837,0.0837 -0.15212,0.83141 -0.15212,1.66166 v 1.50954 l 2.84427,1.73099 c 1.56435,0.95204 2.93357,1.74118 3.04271,1.75364 0.10914,0.0125 0.19844,-0.73568 0.19844,-1.66254 z m -6.61863,-3.8049 c -0.002,-0.83674 -0.0915,-1.64803 -0.19844,-1.80287 -0.24949,-0.36132 -5.55688,-3.55494 -5.90786,-3.55494 -0.15676,0 -0.23275,0.66835 -0.18613,1.63719 l 0.0788,1.63719 2.91042,1.78192 c 1.60072,0.98005 2.99971,1.79112 3.10885,1.80239 0.10914,0.0113 0.19661,-0.66413 0.19439,-1.50088 z m 6.70038,-2.21583 c -0.0278,-1.76452 -0.10813,-3.35825 -0.1785,-3.54163 -0.13522,-0.35239 -5.30524,-3.5691 -5.73639,-3.5691 -0.30575,0 -0.33719,6.33579 -0.0338,6.8136 0.23714,0.37348 5.32516,3.47192 5.73467,3.49222 0.16519,0.008 0.24559,-1.19201 0.21404,-3.19509 z m -13.67427,-3.5469 c -0.11682,-0.30443 -5.7234,-3.82841 -6.09091,-3.82841 -0.0882,0 -0.16032,0.74479 -0.16032,1.65509 v 1.65509 l 3.10885,1.86673 3.10886,1.86672 0.0804,-1.44167 c 0.0442,-0.79292 0.0231,-1.59102 -0.0469,-1.77355 z m 6.92029,-0.93649 -0.0747,-3.28232 -2.91041,-1.78283 c -1.60073,-0.98056 -3.00317,-1.78568 -3.11654,-1.78918 -0.11336,-0.003 -0.17289,1.56975 -0.13229,3.49609 l 0.0738,3.50243 2.91042,1.77493 c 1.60072,0.9762 3.00353,1.68228 3.11735,1.56906 0.11381,-0.11322 0.17335,-1.6829 0.13229,-3.48818 z m -13.91879,-1.78071 -0.0858,-1.8004 -2.73465,-1.63978 c -1.50406,-0.90188 -2.83467,-1.63956 -2.9569,-1.63929 -0.12224,2.7e-4 -0.22225,0.71405 -0.22225,1.58618 v 1.58569 l 3.0427,1.84327 c 1.67349,1.0138 3.04271,1.8481 3.04271,1.854 0,0.006 -0.0386,-0.79945 -0.0858,-1.78967 z m 20.62594,-2.06233 c -0.009,-2.39779 -0.11135,-3.46818 -0.35443,-3.70174 -0.63056,-0.6059 -5.34146,-3.25115 -5.55496,-3.1192 -0.3596,0.22224 -0.25222,6.29482 0.11978,6.77414 0.35921,0.46283 5.56073,3.66132 5.71056,3.5115 0.0503,-0.0503 0.0859,-1.60946 0.0791,-3.4647 z m -13.53272,0.0912 c -0.002,-1.78263 -0.0918,-3.37903 -0.19903,-3.54756 -0.23238,-0.3652 -5.50893,-3.53004 -5.88543,-3.53004 -0.40645,0 -0.3409,6.52253 0.0692,6.8902 0.6469,0.57993 5.36343,3.41838 5.68854,3.42342 0.24708,0.004 0.32971,-0.81463 0.32668,-3.23602 z m -13.92377,-2.02878 c -0.0205,-0.86135 -0.1084,-1.68129 -0.19542,-1.82209 -0.17749,-0.28719 -5.51646,-3.49132 -5.8175,-3.49132 -0.10606,0 -0.1574,0.73674 -0.11407,1.6372 l 0.0788,1.63719 2.91042,1.78191 c 1.60073,0.98005 2.96994,1.7912 3.0427,1.80255 0.0728,0.0114 0.11556,-0.6841 0.0951,-1.54544 z m 6.82826,-2.26587 c 0.008,-1.84806 -0.0887,-3.45822 -0.21371,-3.57812 -0.53349,-0.51155 -5.51214,-3.39189 -5.68171,-3.28709 -0.28568,0.17656 -0.13042,6.67478 0.16624,6.95757 0.41178,0.39254 5.5399,3.44339 5.63242,3.35087 0.0457,-0.0457 0.0892,-1.59516 0.0968,-3.44323 z m 13.92026,0.0789 -0.0738,-3.48811 -2.91041,-1.77278 c -1.60073,-0.97503 -2.99971,-1.72007 -3.10886,-1.65565 -0.10914,0.0644 -0.19843,1.59482 -0.19843,3.40088 v 3.28376 l 0.73567,0.54391 c 1.30018,0.96126 4.94179,3.13232 5.29128,3.15456 0.26227,0.0167 0.3218,-0.76317 0.26458,-3.46657 z m -27.55122,-3.51643 c -0.0937,-0.24423 -5.04319,-3.34801 -6.05854,-3.79928 -0.10914,-0.0485 -0.19844,0.66652 -0.19844,1.58894 v 1.67714 l 3.10886,1.86673 3.10885,1.86673 0.0804,-1.44167 c 0.0442,-0.79292 0.0257,-1.58429 -0.0412,-1.75859 z m 20.73052,-0.30451 c 0,-1.67447 -0.11874,-3.26637 -0.26388,-3.53755 -0.25998,-0.48579 -5.33569,-3.70549 -5.84152,-3.70549 -0.16081,0 -0.2318,1.33051 -0.18613,3.48847 l 0.0738,3.48846 2.91042,1.76629 c 1.60073,0.97146 2.99971,1.71634 3.10885,1.6553 0.10914,-0.061 0.19844,-1.48101 0.19844,-3.15548 z m 13.52946,0.0283 c 0.004,-1.74368 -0.002,-3.3036 -0.014,-3.46648 -0.0264,-0.36033 -5.74053,-3.81873 -5.95503,-3.60423 -0.2302,0.2302 -0.17423,6.49865 0.0613,6.86941 0.2641,0.41567 5.40657,3.5232 5.68752,3.4369 0.11683,-0.0359 0.2159,-1.49191 0.22016,-3.2356 z m -27.55238,-0.48248 v -3.52985 l -2.76972,-1.62952 c -1.52335,-0.89624 -2.89257,-1.62953 -3.04271,-1.62953 -0.417,0 -0.36245,6.51236 0.0577,6.89447 0.4387,0.39894 5.3022,3.37884 5.55625,3.40435 0.10914,0.011 0.19843,-1.5685 0.19843,-3.50992 z m -13.76648,-3.49143 c -0.32414,-0.39056 -5.4682,-3.56205 -5.77754,-3.56205 -0.10294,0 -0.18273,0.71439 -0.1773,1.58753 l 0.01,1.58753 3.0427,1.82962 3.04271,1.82962 0.08,-1.4551 c 0.045,-0.81832 -0.0515,-1.61354 -0.22046,-1.81715 z m 34.66452,-0.20423 c -0.002,-1.77404 -0.0915,-3.35221 -0.19844,-3.50704 -0.24409,-0.35351 -5.55311,-3.55495 -5.89524,-3.55495 -0.14692,0 -0.25227,1.42292 -0.25227,3.40719 0,2.67096 0.0838,3.47676 0.38794,3.72915 0.83563,0.69352 5.57654,3.3842 5.76362,3.27112 0.10914,-0.066 0.19661,-1.57142 0.19439,-3.34547 z m -27.51262,-0.28972 c 0,-3.75215 0.2385,-3.34944 -3.19822,-5.40013 -3.48582,-2.07998 -3.17937,-2.26031 -3.09353,1.8204 l 0.074,3.5198 2.91042,1.7663 c 1.60073,0.97146 2.99971,1.71634 3.10885,1.65529 0.10914,-0.061 0.19844,-1.57379 0.19844,-3.36166 z m 13.5405,3.11651 c 0.0471,-0.23649 0.0488,-1.83979 0.004,-3.5629 l -0.0816,-3.13293 -2.65788,-1.60562 c -1.46183,-0.8831 -2.7851,-1.63128 -2.9406,-1.66262 -0.35037,-0.0706 -0.33805,6.64918 0.0128,7.00006 0.30046,0.30046 5.15968,3.33107 5.39864,3.36704 0.0985,0.0148 0.21754,-0.16654 0.26459,-0.40303 z m -27.42674,-4.79555 c -0.0614,-0.69122 -0.11726,-1.44982 -0.12415,-1.68578 -0.008,-0.25714 -1.17937,-1.13162 -2.92513,-2.18281 -1.60193,-0.96459 -2.97683,-1.7538 -3.05533,-1.7538 -0.0785,0 -0.10728,0.73673 -0.064,1.63719 l 0.0788,1.63719 2.91042,1.78191 c 1.60073,0.98005 2.99605,1.79113 3.10071,1.80239 0.10467,0.0113 0.14007,-0.54506 0.0787,-1.23629 z m 20.50082,-2.38332 v -3.6401 l -2.75431,-1.65157 c -1.51487,-0.90836 -2.88409,-1.65157 -3.04271,-1.65157 -0.33365,0 -0.40694,6.28308 -0.0793,6.79845 0.14736,0.23179 5.33508,3.58993 5.81017,3.76106 0.0364,0.0131 0.0661,-1.61422 0.0661,-3.61627 z m 13.96759,0.57586 c 0.0423,-1.58889 0.0121,-3.14944 -0.0671,-3.46789 -0.0964,-0.38742 -1.09746,-1.15343 -3.0255,-2.3151 -1.5848,-0.95486 -2.95359,-1.73611 -3.04176,-1.73611 -0.23086,0 -0.19021,6.68717 0.0429,7.05349 0.27854,0.43775 5.43238,3.50636 5.74993,3.42353 0.14991,-0.0391 0.29793,-1.3211 0.34154,-2.95792 z m 13.63856,-0.12362 c -0.0235,-1.75343 -0.10387,-3.34717 -0.17849,-3.54164 -0.14061,-0.36643 -5.29831,-3.58926 -5.74413,-3.58926 -0.14698,0 -0.25228,1.42824 -0.25228,3.42172 v 3.42171 l 2.84427,1.72878 c 1.56435,0.95083 2.96334,1.73282 3.10886,1.73777 0.16453,0.006 0.24839,-1.19659 0.22177,-3.17908 z m -41.20242,-0.40699 c 0.0164,-1.73362 -0.0235,-3.2941 -0.0887,-3.46774 -0.13676,-0.36449 -5.37779,-3.52075 -5.84627,-3.52075 -0.22346,0 -0.31252,0.93319 -0.31252,3.2749 0,2.63715 0.08,3.34126 0.41068,3.61572 0.88579,0.73514 5.29296,3.36747 5.54245,3.31042 0.15611,-0.0357 0.27679,-1.35283 0.29435,-3.21255 z m -13.65581,-2.05912 v -1.6852 l -2.93115,-1.75438 c -1.61214,-0.9649 -3.04089,-1.75437 -3.175,-1.75437 -0.13412,0 -0.24385,0.68526 -0.24385,1.5228 v 1.52279 l 3.10886,1.89493 c 1.70987,1.04222 3.13862,1.90477 3.175,1.91679 0.0364,0.012 0.0661,-0.73649 0.0661,-1.66336 z m 34.17975,-2.15124 -0.0838,-3.43959 -2.78914,-1.66908 c -1.53402,-0.918 -2.85727,-1.60096 -2.94055,-1.51768 -0.20968,0.20969 -0.14304,6.75964 0.071,6.97364 0.50872,0.50871 5.58181,3.42339 5.69403,3.27142 0.0728,-0.0985 0.0946,-1.72694 0.0485,-3.61871 z m 13.91677,0.1138 -0.0747,-3.28233 -2.91041,-1.78283 c -1.60073,-0.98055 -3.00317,-1.78568 -3.11654,-1.78917 -0.11336,-0.003 -0.17289,1.56975 -0.13229,3.49608 l 0.0738,3.50244 2.91042,1.77492 c 1.60072,0.97621 3.00353,1.68229 3.11735,1.56907 0.11381,-0.11322 0.17335,-1.68291 0.13229,-3.48818 z m -27.45902,0.26568 c 0,-1.75582 -0.11519,-3.40764 -0.25599,-3.67072 -0.22814,-0.42629 -5.46429,-3.72022 -5.91379,-3.72022 -0.0991,0 -0.18022,1.53323 -0.18022,3.40718 0,2.74821 0.079,3.47273 0.4083,3.74605 0.56811,0.47149 5.50033,3.40909 5.74326,3.42066 0.10914,0.005 0.19844,-1.42714 0.19844,-3.18295 z m -13.94862,-0.59969 c -0.002,-1.85308 -0.0493,-3.40521 -0.10512,-3.44918 -0.52293,-0.41204 -5.60988,-3.34207 -5.80231,-3.34207 -0.29577,0 -0.34225,6.33129 -0.0498,6.78159 0.27538,0.424 5.43659,3.5345 5.72346,3.44935 0.13058,-0.0388 0.23577,-1.58662 0.23376,-3.43969 z m 48.15653,-3.50088 c -0.0161,-1.97385 -0.1443,-3.44994 -0.31766,-3.65883 -0.48741,-0.58729 -5.33972,-3.35181 -5.60038,-3.19072 -0.13422,0.083 -0.24404,1.6175 -0.24404,3.4101 0,2.54217 0.0854,3.33018 0.38825,3.5815 0.79261,0.65781 5.54682,3.42071 5.67153,3.296 0.0711,-0.0712 0.11719,-1.61828 0.1023,-3.43805 z m -61.82216,0.27654 c -0.0702,-0.18294 -1.17829,-0.96274 -2.46242,-1.7329 -1.28413,-0.77015 -2.60268,-1.57109 -2.9301,-1.77986 -0.59498,-0.37938 -0.59531,-0.37865 -0.58808,1.30448 l 0.007,1.68408 2.96933,1.76134 2.96932,1.76135 0.0812,-1.33293 c 0.0446,-0.73312 0.0237,-1.48262 -0.0465,-1.66556 z m 34.27986,-0.31318 c 0.0653,-2.70154 0.003,-3.44588 -0.31561,-3.79423 -0.3838,-0.41909 -5.35906,-3.42825 -5.66817,-3.42825 -0.084,0 -0.15266,1.54898 -0.15266,3.44217 0,2.95217 0.0659,3.49811 0.46302,3.83514 0.54849,0.46551 5.1437,3.2573 5.40883,3.2861 0.10083,0.011 0.21989,-1.49246 0.26459,-3.34093 z m 13.94577,0.0788 c -0.0241,-1.80514 -0.11734,-3.39509 -0.20726,-3.53323 -0.22894,-0.35169 -5.46921,-3.50344 -5.82503,-3.50344 -0.19737,0 -0.29159,1.10572 -0.29159,3.42191 v 3.42192 l 2.84427,1.71815 c 1.56435,0.94498 2.99707,1.72684 3.18383,1.73746 0.26134,0.0149 0.32947,-0.73663 0.29578,-3.26277 z m -41.30734,-0.48823 -0.0738,-3.50573 -2.91042,-1.77104 c -1.60073,-0.97407 -3.00317,-1.77774 -3.11653,-1.78594 -0.11336,-0.008 -0.1729,1.5612 -0.13229,3.48754 l 0.0738,3.50243 2.91042,1.78289 c 1.60073,0.98058 3.00317,1.78574 3.11653,1.78923 0.11337,0.003 0.1729,-1.57123 0.1323,-3.49938 z m 13.73695,0.30832 c 0.0289,-1.66116 -0.007,-3.22098 -0.0786,-3.46625 -0.15902,-0.54132 -5.56123,-3.74887 -5.93002,-3.52094 -0.27346,0.169 -0.36352,5.41261 -0.10922,6.35918 0.15042,0.55992 5.30628,3.8719 5.80077,3.72625 0.1523,-0.0449 0.28684,-1.35972 0.31703,-3.09824 z m 6.95496,-4.0281 c -0.002,-1.77405 -0.0915,-3.35813 -0.19844,-3.52019 -0.17812,-0.26999 -5.80182,-3.80639 -6.05305,-3.80639 -0.0602,0 -0.0763,1.62933 -0.0358,3.62073 l 0.0736,3.62073 2.91042,1.76632 c 1.60073,0.97147 2.99971,1.71637 3.10885,1.65532 0.10914,-0.061 0.19662,-1.56248 0.19439,-3.33652 z m 13.54944,-0.14203 -0.0806,-3.4506 -2.56518,-1.58258 c -1.41085,-0.87042 -2.74336,-1.62126 -2.96113,-1.66854 -0.33342,-0.0724 -0.40072,0.42586 -0.42614,3.15507 -0.0188,2.01947 0.0806,3.38261 0.26366,3.61671 0.35396,0.45257 5.51793,3.58428 5.71295,3.46465 0.0754,-0.0463 0.10085,-1.63689 0.0565,-3.53471 z m 13.97128,0.40665 c 0,-2.20192 -0.10712,-3.39462 -0.33073,-3.68248 -0.34691,-0.44658 -5.4434,-3.64413 -5.8083,-3.64413 -0.26485,0 -0.27285,6.63912 -0.008,7.04617 0.2611,0.40202 5.39819,3.51865 5.81678,3.52899 0.24711,0.006 0.33073,-0.81521 0.33073,-3.24855 z m -61.9125,1.42152 v -1.57061 l -2.88239,-1.73668 c -1.58532,-0.95517 -3.02001,-1.73668 -3.18821,-1.73668 -0.20481,0 -0.2796,0.49703 -0.22646,1.50502 l 0.0793,1.50502 2.91042,1.78179 c 1.60073,0.97999 2.99971,1.79101 3.10885,1.80228 0.10914,0.0113 0.19844,-0.6863 0.19844,-1.55014 z m 20.26886,-5.46266 c -0.13159,-0.34292 -5.31421,-3.55006 -5.73676,-3.55006 -0.16083,0 -0.23181,1.3328 -0.18614,3.4951 l 0.0738,3.49509 2.91042,1.77756 2.91041,1.77756 0.0744,-3.34043 c 0.0409,-1.83724 0.0202,-3.48191 -0.0462,-3.65482 z m -13.41444,3.52755 c 0.0131,-1.78263 -0.0653,-3.36944 -0.17415,-3.52624 -0.2156,-0.31047 -5.42863,-3.55137 -5.71243,-3.55137 -0.0958,0 -0.171,1.57758 -0.16721,3.50573 l 0.007,3.50573 2.7051,1.63077 c 1.48781,0.89693 2.84301,1.64107 3.01155,1.65365 0.21558,0.0161 0.31351,-0.93817 0.33027,-3.21827 z m 48.17891,-3.22369 c 0,-4.23495 0.10297,-4.03454 -3.04191,-5.92031 -1.50221,-0.90078 -2.86453,-1.63777 -3.02737,-1.63777 -0.20719,0 -0.27391,1.05152 -0.22225,3.50243 l 0.0738,3.50243 2.9021,1.76911 c 1.59616,0.97301 2.99514,1.71161 3.10886,1.64133 0.11371,-0.0703 0.20675,-1.35603 0.20675,-2.85722 z m 13.56626,0.22508 c -0.0329,-1.44308 -0.0627,-2.99979 -0.0661,-3.45936 -0.006,-0.77926 -0.1922,-0.94419 -2.76396,-2.44739 -1.51669,-0.88651 -2.8859,-1.61183 -3.04271,-1.61183 -0.32642,0 -0.40302,6.28826 -0.0826,6.78159 0.29154,0.44888 5.44527,3.53208 5.75064,3.4403 0.1586,-0.0477 0.24064,-1.13049 0.2048,-2.70331 z m -75.74687,-0.77596 c -0.31169,-0.37557 -5.5920903,-3.56762 -5.9016703,-3.56762 -0.0991,0 -0.18022,0.68526 -0.18022,1.5228 v 1.5228 l 3.10886,1.86672 3.1088503,1.86673 0.08,-1.42747 c 0.0441,-0.78646 -0.0528,-1.58756 -0.21584,-1.78396 z m 34.56595,-0.21085 c 0.0396,-3.85848 0.3432,-3.35133 -3.31429,-5.53572 -2.46318,-1.4711 -2.5461,-1.49941 -2.7129,-0.92604 -0.32344,1.11175 -0.24388,5.88857 0.10591,6.36006 0.41789,0.56326 5.26684,3.58758 5.6224,3.50672 0.157,-0.0357 0.27853,-1.42027 0.29888,-3.40502 z m 13.61159,3.18505 c -0.0109,-0.1055 -0.0199,-1.65729 -0.0199,-3.44842 v -3.25659 l -2.75547,-1.6382 c -1.5155,-0.90101 -2.88472,-1.63819 -3.0427,-1.63819 -0.43017,0 -0.38916,6.50104 0.0435,6.89447 0.59691,0.5428 5.35263,3.3832 5.57609,3.33037 0.12006,-0.0284 0.20935,-0.13793 0.19844,-0.24344 z m -41.03026,-3.47372 c 0,-2.77147 -0.0683,-3.30795 -0.46302,-3.63921 -0.55145,-0.46274 -5.51141,-3.39764 -5.742,-3.39764 -0.0882,0 -0.12712,1.56928 -0.0865,3.4873 l 0.0738,3.48729 2.89935,1.78595 c 1.59464,0.98227 2.99362,1.72768 3.10885,1.65646 0.11523,-0.0712 0.20951,-1.59228 0.20951,-3.38015 z m 13.69987,0.0584 -0.0738,-3.48803 -2.98921,-1.80363 c -1.64406,-0.992 -3.04305,-1.80364 -3.10885,-1.80364 -0.0658,0 -0.11965,1.54312 -0.11965,3.42915 0,2.40653 0.0986,3.51884 0.33073,3.7299 0.59805,0.54384 5.35022,3.38398 5.69622,3.40435 0.26222,0.0155 0.32179,-0.76541 0.26459,-3.4681 z m 48.21263,-3.49803 c 0,-2.76557 -0.0691,-3.31097 -0.46302,-3.65471 -0.66755,-0.58251 -5.34065,-3.38214 -5.64542,-3.38214 -0.15695,0 -0.2282,1.36284 -0.1831,3.50243 l 0.0738,3.50243 2.9021,1.76911 c 1.59615,0.97301 2.99514,1.71161 3.10885,1.64133 0.11372,-0.0703 0.20676,-1.59058 0.20676,-3.37845 z m -27.51667,-0.2732 c 0,-2.60282 -0.0815,-3.32695 -0.40483,-3.59525 -0.66894,-0.55517 -5.46597,-3.43299 -5.72244,-3.43299 -0.13275,0 -0.20543,1.54337 -0.16426,3.48847 l 0.0738,3.48846 2.91042,1.76629 c 1.60073,0.97146 2.99971,1.71634 3.10885,1.6553 0.10914,-0.061 0.19844,-1.57767 0.19844,-3.37028 z m 13.51821,2.6952 c 0.0951,-3.34358 -0.01,-6.11052 -0.24064,-6.34128 -0.52083,-0.52083 -5.44063,-3.35123 -5.62599,-3.23668 -0.26494,0.16374 -0.28935,5.38364 -0.0296,6.33682 0.17225,0.63219 0.75143,1.12672 2.8456,2.4297 1.44613,0.89977 2.71862,1.64391 2.82776,1.65364 0.10914,0.01 0.20945,-0.36926 0.2229,-0.8422 z M 5.5364177,263.04202 c -0.12837,-0.33452 -5.69654004,-3.69341 -5.85609004,-3.53257 -0.0491,0.0495 -0.12252,0.71958 -0.16317,1.48909 l -0.0739,1.39911 3.02769004,1.81976 3.02769,1.81976 0.0812,-1.33525 c 0.0446,-0.73438 0.0251,-1.48134 -0.0434,-1.6599 z m 20.7284103,-0.21706 c -0.002,-1.62852 -0.0685,-3.19907 -0.14792,-3.49011 -0.11325,-0.4153 -4.39303,-3.25435 -5.71687,-3.79236 -0.11936,-0.0485 -0.21701,1.51383 -0.21701,3.47187 v 3.56007 l 2.84427,1.71417 c 1.56435,0.9428 2.93357,1.66538 3.04271,1.60574 0.10914,-0.0596 0.19681,-1.44086 0.19482,-3.06938 z m 13.53783,-0.055 c 0.008,-1.74379 10e-4,-3.30379 -0.0134,-3.46667 -0.0331,-0.36218 -5.74714,-3.81746 -5.96037,-3.60424 -0.23316,0.23316 -0.17269,6.50104 0.0663,6.87752 0.26071,0.41061 5.39041,3.49888 5.68192,3.42072 0.11651,-0.0312 0.21799,-1.48353 0.2255,-3.22733 z m -27.29255,-0.37552 v -3.4227 l -2.8823903,-1.73667 c -1.58532,-0.95517 -3.0019,-1.73668 -3.14797,-1.73668 -0.31283,0 -0.42746,6.32947 -0.12267,6.77357 0.21792,0.31752 5.6316603,3.53832 5.9546003,3.54257 0.10914,0.001 0.19843,-1.5376 0.19843,-3.42009 z m 47.94129,-3.93889 -0.0806,-3.44669 -2.71575,-1.60732 c -1.49367,-0.88402 -2.85985,-1.60732 -3.03595,-1.60732 -0.23813,0 -0.30127,0.89792 -0.24637,3.50351 l 0.0738,3.50351 2.91042,1.74365 c 1.60073,0.95901 2.96994,1.65673 3.0427,1.5505 0.0728,-0.10623 0.096,-1.74416 0.0517,-3.63984 z m 13.91588,0.85777 c 0.0423,-1.58889 0.0145,-3.14006 -0.0619,-3.44705 -0.0905,-0.36374 -1.16133,-1.17017 -3.07425,-2.31511 -1.61449,-0.96631 -2.98564,-1.75694 -3.04699,-1.75694 -0.0614,0 -0.11156,1.54898 -0.11156,3.44218 0,2.95217 0.0659,3.49811 0.46302,3.83514 0.84337,0.71577 5.22072,3.26496 5.49011,3.19722 0.15011,-0.0378 0.29787,-1.31639 0.34154,-2.95544 z m -41.21967,-0.88555 v -3.38938 l -2.93115,-1.75438 c -1.61214,-0.9649 -3.04089,-1.75437 -3.175,-1.75437 -0.13612,0 -0.24385,1.50528 -0.24385,3.40719 0,2.84021 0.0725,3.46761 0.43572,3.77031 0.91817,0.7652 5.49484,3.36925 5.69937,3.24285 0.1182,-0.0731 0.21491,-1.65805 0.21491,-3.52222 z m 13.71265,0.65412 c 0.0476,-1.57042 0.019,-3.12479 -0.0637,-3.45417 -0.10339,-0.41193 -1.00332,-1.10373 -2.88294,-2.21619 -1.50296,-0.88952 -2.87327,-1.61731 -3.04515,-1.61731 -0.22346,0 -0.31252,0.93319 -0.31252,3.2749 0,2.63715 0.08,3.34127 0.41068,3.61572 0.883,0.73283 5.29265,3.36762 5.54245,3.31164 0.14965,-0.0335 0.3022,-1.2996 0.35119,-2.91459 z m -48.1125303,1.37744 c -0.002,-0.76399 -0.0915,-1.51327 -0.19844,-1.66508 -0.24979,-0.35468 -5.57759,-3.56044 -5.91726,-3.56044 -0.14504,0 -0.22215,0.65452 -0.17731,1.50501 l 0.0793,1.50502 2.91042,1.7818 c 1.60073,0.97998 2.99971,1.79101 3.10885,1.80227 0.10914,0.0113 0.19662,-0.6046 0.19439,-1.36858 z m 6.88322,-2.16603 c 0,-2.60282 -0.0815,-3.32695 -0.40483,-3.59526 -0.44728,-0.37121 -5.42612004,-3.43298 -5.58248004,-3.43298 -0.054,0 -0.0981,1.59211 -0.0981,3.53802 v 3.53802 l 2.84427004,1.71417 c 1.56435,0.9428 2.93357,1.66538 3.04271,1.60574 0.10914,-0.0596 0.19844,-1.57511 0.19844,-3.36771 z m 13.7583303,0.29837 c 0,-2.20172 -0.10714,-3.39477 -0.33073,-3.68286 -0.44837,-0.57772 -5.56096,-3.63119 -5.81599,-3.47358 -0.1118,0.0691 -0.20328,1.59232 -0.20328,3.38492 0,2.70288 0.0744,3.32127 0.43572,3.62241 0.60091,0.5008 5.47111,3.40084 5.71584,3.4036 0.10914,10e-4 0.19844,-1.46329 0.19844,-3.25449 z m 98.867412,-14.76708 c 15.25464,-9.18549 29.43346,-17.72823 31.50849,-18.98386 2.38933,-1.44582 3.74725,-2.42351 3.70316,-2.66623 -0.0383,-0.2108 -6.78969,-4.41627 -15.00312,-9.34548 -12.48261,-7.49133 -15.02272,-8.92149 -15.47712,-8.71406 -0.29899,0.13648 -7.78123,4.60984 -16.62721,9.94079 -8.845972,5.33095 -16.208162,9.69264 -16.360422,9.69264 -0.15226,0 -8.00791,-4.66082 -17.457,-10.35738 -18.21727,-10.98262 -18.19929,-10.96979 -17.00715,-12.1396 0.38996,-0.38266 32.00075,-19.57752 34.0255,-20.66113 0.40192,-0.21511 3.28139,1.42058 16.098802,9.14496 8.58513,5.17379 15.72477,9.4069 15.86587,9.4069 0.16321,0 0.25654,-6.71417 0.25654,-18.45574 v -18.4556 l -15.60253,-9.32553 c -8.581392,-5.12903 -15.776722,-9.32552 -15.989622,-9.32552 -0.36019,0 -26.14167,15.41151 -76.16361,45.52866 -15.8181403,9.52376 -20.8231803,12.65713 -20.7697903,13.00276 0.0847,0.54854 95.8151403,58.36424 96.6887903,58.39451 0.31695,0.011 13.014222,-7.47046 28.310422,-16.68097 z m -50.977832,10.41621 -0.13229,-3.10068 -2.64583,-1.63963 c -1.45521,-0.90179 -2.7673,-1.64759 -2.91575,-1.65732 -0.33382,-0.0219 -0.47037,4.11924 -0.19335,5.86365 0.19856,1.25036 0.20039,1.25218 2.9768,2.9607 3.27698,2.01655 3.10607,2.15905 2.91042,-2.42672 z m -13.49375,0.71103 c 0,-1.75582 -0.11874,-3.41427 -0.26388,-3.68545 -0.25765,-0.48143 -5.33354,-3.70549 -5.83384,-3.70549 -0.14692,0 -0.25228,1.42292 -0.25228,3.40719 0,2.84021 0.0725,3.46761 0.43572,3.77031 0.60091,0.5008 5.47111,3.40085 5.71584,3.4036 0.10914,10e-4 0.19844,-1.43434 0.19844,-3.19016 z m -62.1627303,-0.33867 c -0.19552,-0.19553 -0.27893,0.19841 -0.27893,1.31738 0,2.07496 0.3729,2.4495 0.47737,0.47948 0.0443,-0.83486 -0.045,-1.64344 -0.19844,-1.79686 z m 34.5907303,0.20225 c 0.0423,-1.58889 0.0123,-3.14892 -0.0668,-3.46673 -0.0958,-0.38491 -1.09321,-1.15104 -2.98737,-2.29458 l -2.84362,-1.71674 -0.0742,3.46774 c -0.0545,2.54912 0.0156,3.55682 0.26458,3.80404 0.60123,0.59691 5.09254,3.25234 5.36583,3.17248 0.14923,-0.0436 0.29814,-1.33683 0.34154,-2.96621 z m 13.67053,-0.24946 c -0.054,-1.82253 -0.166,-3.42352 -0.24896,-3.55775 -0.1964,-0.31778 -5.37606,-3.44731 -5.70562,-3.44731 -0.14698,0 -0.25228,1.42824 -0.25228,3.42172 v 3.42171 l 2.84427,1.72878 c 1.56435,0.95082 2.98297,1.73277 3.1525,1.73766 0.22371,0.006 0.28132,-0.89975 0.21009,-3.30481 z m -41.1895103,-0.66256 -0.0746,-3.27134 -2.77813,-1.6672 c -1.52797,-0.91696 -2.92695,-1.6675 -3.10885,-1.66787 -0.46609,-9.5e-4 -0.46562,6.06372 5.2e-4,6.70121 0.49401,0.67559 5.57843,3.63386 5.82382,3.38846 0.11656,-0.11656 0.17834,-1.68403 0.13728,-3.48326 z m 13.8119303,0.47052 c -0.002,-1.78263 -0.0915,-3.37623 -0.19844,-3.54134 -0.34309,-0.52984 -5.6040903,-3.5763 -5.8807403,-3.40532 -0.31629,0.19548 -0.35964,6.19231 -0.0483,6.68266 0.26167,0.41211 5.3483103,3.4743 5.8008103,3.49212 0.24751,0.01 0.32971,-0.80258 0.32668,-3.22812 z m 47.89363,-3.75343 v -3.55499 l -2.88239,-1.73667 c -1.58531,-0.95517 -2.95453,-1.73668 -3.04271,-1.73668 -0.0882,0 -0.16031,1.54425 -0.16031,3.43166 v 3.43167 l 0.73567,0.5439 c 0.98857,0.73088 4.90223,3.12754 5.15131,3.15457 0.10914,0.0118 0.19843,-1.57821 0.19843,-3.53346 z m -41.01446,-0.23093 c -0.002,-1.77405 -0.0915,-3.36265 -0.19844,-3.53023 -0.22462,-0.35208 -5.54049,-3.53176 -5.90449,-3.53176 -0.38531,0 -0.30403,6.43423 0.0877,6.94283 0.45335,0.58859 5.54808,3.6359 5.80909,3.47459 0.1156,-0.0714 0.20836,-1.58139 0.20613,-3.35543 z m 13.70392,0.0189 -0.0738,-3.50243 -2.91042,-1.78289 c -1.60073,-0.98059 -3.00317,-1.78575 -3.11653,-1.78924 -0.11336,-0.003 -0.1729,1.56742 -0.13229,3.4909 l 0.0738,3.49725 2.90677,1.79442 c 1.59873,0.98693 3.00117,1.79442 3.11654,1.79442 0.11537,0 0.17654,-1.57609 0.13594,-3.50243 z m 13.81679,0.17512 c 0,-3.89388 0.21223,-3.5538 -3.61712,-5.79636 -1.93597,-1.13375 -2.45747,-1.34032 -2.57969,-1.02183 -0.204,0.53163 -0.14675,5.62158 0.0716,6.36794 0.16662,0.56948 5.03872,3.73478 5.79446,3.76454 0.24774,0.01 0.33072,-0.82188 0.33072,-3.31429 z M 5.6309477,250.0912 c 0,-3.76676 0.29675,-3.28826 -3.41228,-5.50209 l -2.54085004,-1.51657 -0.0741,3.47972 c -0.0418,1.96193 0.0359,3.58972 0.17805,3.73191 0.51181,0.5118 5.45907004,3.30077 5.65078004,3.18557 0.10914,-0.0656 0.19844,-1.58593 0.19844,-3.37854 z m -13.76239,0.0494 c -0.002,-1.78263 -0.11947,-3.41974 -0.26053,-3.63802 -0.17249,-0.26691 -0.25781,0.79451 -0.26053,3.24114 -0.003,2.25166 0.0968,3.63802 0.26053,3.63802 0.16221,0 0.26302,-1.25407 0.26053,-3.24114 z m 48.0818203,-2.92162 c 0.14126,-4.43534 0.20445,-4.30211 -2.94366,-6.20651 -1.50348,-0.9095 -2.87123,-1.65364 -3.03945,-1.65364 -0.21972,0 -0.28506,0.98561 -0.23203,3.4998 l 0.0738,3.49981 2.88959,1.79064 c 1.58928,0.98485 2.95361,1.72661 3.03186,1.64837 0.0782,-0.0783 0.17718,-1.23856 0.21986,-2.57847 z m 13.83068,-0.51797 c -0.002,-1.78263 -0.0915,-3.37373 -0.19844,-3.53579 -0.17812,-0.27 -5.80182,-3.80639 -6.05305,-3.80639 -0.0602,0 -0.0763,1.63067 -0.0358,3.62371 l 0.0736,3.62371 2.77813,1.66728 c 1.52797,0.91701 2.92695,1.66759 3.10885,1.66796 0.24684,5e-4 0.3297,-0.82143 0.32668,-3.24048 z m -41.27095,-0.46031 v -3.43688 l -1.38906,-0.894 c -2.7268903,-1.75501 -4.5535003,-2.77157 -4.7556303,-2.64665 -0.11292,0.0698 -0.20531,1.60458 -0.20531,3.41064 v 3.28376 l 0.73827,0.54582 c 1.24314,0.91909 4.9301803,3.11525 5.2810003,3.14559 0.24908,0.0215 0.33073,-0.81991 0.33073,-3.40828 z m 13.75428,0.19573 c -0.002,-1.78263 -0.0915,-3.36575 -0.19843,-3.51805 -0.21366,-0.30435 -5.43729,-3.55955 -5.71204,-3.55955 -0.094,0 -0.16638,1.57758 -0.16086,3.50573 l 0.01,3.50573 2.70194,1.63991 c 1.48607,0.90195 2.85078,1.64609 3.03268,1.65364 0.24754,0.0103 0.32971,-0.80149 0.32667,-3.22741 z m -27.5126103,-0.28016 c 0,-2.20822 -0.10648,-3.38999 -0.33073,-3.67066 -0.53168,-0.66544 -5.43512,-3.45658 -5.74071,-3.26772 -0.16988,0.105 -0.27856,1.40576 -0.27856,3.33414 0,2.68791 0.0694,3.21987 0.46302,3.54813 0.79431,0.66246 5.2083,3.28248 5.55625,3.29804 0.24747,0.0111 0.33073,-0.80505 0.33073,-3.24193 z m 48.1541603,-3.58749 c 0,-2.10449 -0.10915,-3.25809 -0.33787,-3.57088 -0.39647,-0.54221 -5.53235,-3.60853 -5.78377,-3.45314 -0.33256,0.20553 -0.24433,6.03897 0.10093,6.6732 0.35913,0.65971 5.45208,3.81108 5.8058,3.59246 0.1182,-0.073 0.21491,-1.53179 0.21491,-3.24164 z m -41.3329003,-0.68444 -0.0744,-3.38467 -2.77812,-1.67872 c -1.52797,-0.9233 -2.86742004,-1.68249 -2.97656004,-1.68709 -0.10914,-0.005 -0.19844,1.58374 -0.19844,3.52965 v 3.53802 L 2.3897877,243.918 c 1.56435,0.94406 2.93728,1.63425 3.05095,1.53375 0.11367,-0.1005 0.1732,-1.70584 0.13229,-3.56741 z m 13.8162403,0.278 c 0,-2.77147 -0.0683,-3.30794 -0.46302,-3.63921 -0.55145,-0.46274 -5.51141,-3.39764 -5.742,-3.39764 -0.0882,0 -0.12712,1.56929 -0.0865,3.4873 l 0.0738,3.48729 2.89935,1.78595 c 1.59464,0.98227 2.99362,1.72768 3.10885,1.65647 0.11523,-0.0712 0.20951,-1.59229 0.20951,-3.38016 z m 13.69987,0.0492 -0.0738,-3.49724 -2.88814,-1.78292 c -1.58848,-0.98061 -2.98747,-1.72154 -3.10886,-1.64652 -0.2715,0.1678 -0.28818,6.47111 -0.0182,6.88677 0.26405,0.40655 5.40062,3.51876 5.82446,3.52899 0.2618,0.006 0.3217,-0.7836 0.26459,-3.48908 z m -41.2165403,-0.1913 c 0,-1.99725 -0.11025,-3.49211 -0.26458,-3.58749 -0.17142,-0.10595 -0.26458,1.09968 -0.26458,3.42396 0,2.21528 0.1012,3.58749 0.26458,3.58749 0.16276,0 0.26458,-1.31771 0.26458,-3.42396 z M 26.243698,238.2337 c 0.0131,-1.7823 -0.0653,-3.37233 -0.17415,-3.53341 -0.21022,-0.31098 -4.73003,-3.15641 -5.45677,-3.43529 -0.38357,-0.14719 -0.42975,0.22004 -0.42975,3.4174 v 3.58232 l 2.84078,1.71455 c 1.56243,0.943 2.92072,1.66514 3.01843,1.60476 0.0977,-0.0604 0.18836,-1.56803 0.20146,-3.35033 z m 13.53377,3.04332 c 0.0275,-0.83388 0.0343,-5.20912 0.009,-5.92476 -0.021,-0.59783 -0.42046,-0.93358 -2.75471,-2.31511 -1.50161,-0.88872 -2.87083,-1.61586 -3.04271,-1.61586 -0.35179,0 -0.45324,6.25313 -0.11002,6.78159 0.20864,0.32125 5.35373,3.51537 5.68449,3.52899 0.10914,0.004 0.20531,-0.20019 0.21371,-0.45485 z m -41.0834603,-3.22556 c 0.0476,-2.0766 -0.0302,-3.37469 -0.21584,-3.59834 -0.27559,-0.33206 -5.57426,-3.561 -5.84359,-3.561 -0.26722,0 -0.25742,6.33879 0.0106,6.83956 0.15227,0.28452 1.2016,1.05482 2.33184,1.71176 1.13024,0.65695 2.2931,1.37887 2.58414,1.60427 0.29105,0.22541 0.64823,0.37437 0.79375,0.33102 0.15233,-0.0454 0.29621,-1.45705 0.33911,-3.32727 z m 13.8161003,0.0101 v -3.41389 L 9.8301977,233.0008 c -3.95931,-2.43308 -3.69837,-2.5324 -3.65414,1.39083 0.0205,1.81621 0.11457,3.42032 0.20908,3.56468 0.20069,0.30653 5.5980703,3.51915 5.9123703,3.51915 0.11693,0 0.2126,-1.53625 0.2126,-3.4139 z m 20.6375,-3.97715 v -3.39108 l -2.71911,-1.60605 c -4.04126,-2.38698 -3.65911,-2.55511 -3.57264,1.57178 l 0.074,3.53377 2.9021,1.76911 c 1.59616,0.97301 2.99514,1.71161 3.10886,1.64133 0.11371,-0.0703 0.20675,-1.65377 0.20675,-3.51886 z M 5.6309477,233.96023 c 0,-2.7633 -0.0694,-3.31214 -0.46302,-3.66066 -0.39561,-0.35029 -3.7008,-2.3664 -5.15777004,-3.14615 -0.43238,-0.2314 -0.46463,-0.002 -0.46463,3.29867 v 3.54733 l 2.84427004,1.71417 c 1.56435,0.9428 2.93357,1.66538 3.04271,1.60574 0.10914,-0.0596 0.19844,-1.57123 0.19844,-3.3591 z m 13.6998003,0.0578 c 0.0631,-2.8346 0.01,-3.36643 -0.36957,-3.68252 -0.92407,-0.77006 -5.50152,-3.37615 -5.70699,-3.24917 -0.1182,0.073 -0.21491,1.61051 -0.21491,3.41658 v 3.28376 l 0.73567,0.5439 c 1.43166,1.05847 4.95656,3.12949 5.21745,3.06546 0.15384,-0.0378 0.29546,-1.45176 0.33835,-3.37801 z m -27.4581403,-0.1999 c 0,-1.99724 -0.11025,-3.4921 -0.26458,-3.58749 -0.17142,-0.10594 -0.26458,1.09969 -0.26458,3.42397 0,2.21527 0.1012,3.58749 0.26458,3.58749 0.16276,0 0.26458,-1.31771 0.26458,-3.42397 z m 20.5788203,-3.90594 -0.0736,-3.62574 -2.8292703,-1.69081 c -1.55609,-0.92995 -2.95508,-1.61306 -3.10885,-1.51802 -0.33466,0.20683 -0.37989,6.18832 -0.0507,6.70741 0.21872,0.34492 5.5341003,3.68924 5.9301603,3.73113 0.11325,0.012 0.17278,-1.60981 0.13229,-3.60397 z m 13.76452,0.82617 c 0.12617,-4.14958 0.17673,-4.04376 -2.7886,-5.83688 -1.40981,-0.8525 -2.71993,-1.64713 -2.91138,-1.76583 -0.28263,-0.17524 -0.33423,0.46938 -0.27437,3.42743 l 0.0737,3.64326 2.64583,1.6623 c 1.45521,0.91426 2.7649,1.62445 2.91042,1.5782 0.14559,-0.0463 0.30047,-1.2644 0.34438,-2.70848 z m -27.4641703,-0.72173 c 0,-2.20822 -0.10648,-3.38999 -0.33073,-3.67066 -0.39109,-0.48949 -5.24795,-3.39137 -5.67612,-3.39137 -0.20178,0 -0.29368,1.0445 -0.29027,3.29891 0.004,2.64026 0.0862,3.36661 0.41177,3.63802 0.57971,0.48327 5.4489,3.37691 5.68691,3.37959 0.10914,0.001 0.19844,-1.46329 0.19844,-3.25449 z m 20.6334503,-3.96879 c -0.002,-1.77404 -0.0915,-3.359 -0.19844,-3.52213 -0.228,-0.34789 -5.55496,-3.53986 -5.90754,-3.53986 -0.38284,0 -0.29874,6.43663 0.0908,6.94577 0.42771,0.55909 5.56023,3.60665 5.82083,3.45626 0.10914,-0.063 0.19662,-1.566 0.19439,-3.34004 z M 5.6268877,225.93116 c -0.002,-1.85539 -0.0915,-3.50012 -0.19843,-3.65495 -0.18889,-0.27355 -5.51527004,-3.55494 -5.77041004,-3.55494 -0.0701,0 -0.0943,1.63067 -0.0538,3.62371 l 0.0736,3.62371 2.77813004,1.66728 c 1.52797,0.91701 2.86742,1.66759 2.97656,1.66796 0.10914,3.7e-4 0.19661,-1.51738 0.19438,-3.37277 z m -13.75833,-0.13229 c -0.002,-1.78263 -0.11947,-3.41974 -0.26053,-3.63802 -0.17249,-0.2669 -0.25781,0.79451 -0.26053,3.24115 -0.003,2.25166 0.0968,3.63802 0.26053,3.63802 0.16221,0 0.26302,-1.25407 0.26053,-3.24115 z m 20.5830903,-3.96545 -0.0738,-3.50243 -2.9021003,-1.76911 c -1.59615,-0.97301 -2.99514,-1.71161 -3.10885,-1.64133 -0.30806,0.19039 -0.25012,6.13572 0.0655,6.72555 0.25173,0.47036 5.3758603,3.68975 5.8727803,3.68975 0.12116,0 0.18706,-1.57609 0.14646,-3.50243 z m -13.6998703,-0.0189 c 0,-2.20197 -0.10711,-3.39459 -0.33073,-3.68239 -0.51568,-0.66371 -5.25401,-3.42532 -5.62973,-3.28115 -0.36468,0.13994 -0.49616,5.15565 -0.16723,6.37894 0.12481,0.46418 0.92864,1.10037 2.8204,2.23224 1.45521,0.87066 2.79466,1.58889 2.97656,1.59605 0.24738,0.01 0.33073,-0.80776 0.33073,-3.24369 z m -6.88322,-4.08547 c -0.002,-1.85539 -0.11947,-3.55203 -0.26053,-3.77031 -0.17225,-0.26653 -0.25781,0.84139 -0.26053,3.37343 -0.003,2.33986 0.0963,3.77032 0.26053,3.77032 0.16277,0 0.26302,-1.29817 0.26053,-3.37344 z m 13.75833,0.13229 c -0.002,-1.78263 -0.0915,-3.37623 -0.19843,-3.54134 -0.19796,-0.30571 -5.42380004,-3.53626 -5.72037004,-3.53626 -0.0894,0 -0.16256,1.59378 -0.16256,3.54173 v 3.54173 l 2.71198004,1.61456 c 1.49159,0.88801 2.86081,1.61595 3.04271,1.61764 0.24697,0.002 0.3297,-0.81775 0.32667,-3.23806 z m 87.3628803,0.91878 0.70779,-0.46679 -1.03852,-0.5977 -1.03851,-0.59769 v 1.06623 c 0,1.19666 0.27616,1.31685 1.36924,0.59595 z m 62.392092,-1.84482 -0.003,-2.3151 -2.03993,-1.19063 c -1.12197,-0.65484 -2.19207,-1.22912 -2.37801,-1.27617 -0.25561,-0.0647 -0.33807,0.49339 -0.33807,2.28786 v 2.37341 l 2.05052,1.21383 c 1.12778,0.66761 2.19935,1.21565 2.38125,1.21787 0.23993,0.003 0.32984,-0.63152 0.32748,-2.31107 z m -60.325802,-2.40956 c -0.002,-1.6943 -0.0915,-3.21377 -0.19844,-3.3766 -0.20607,-0.31386 -2.78093,-1.9529 -3.06792,-1.9529 -0.0931,0 -0.16709,1.57758 -0.16454,3.50573 l 0.005,3.50573 1.38443,0.81654 c 0.76144,0.4491 1.53326,0.76379 1.71516,0.6993 0.23926,-0.0848 0.32961,-0.96925 0.32668,-3.1978 z m -96.3042803,-0.9471 c 0,-2.70288 -0.0744,-3.32127 -0.43572,-3.6224 -0.92957,-0.77471 -5.4961,-3.36847 -5.70412,-3.23991 -0.32415,0.20033 -0.17621,6.39394 0.16383,6.85897 0.40537,0.55439 5.49982,3.55693 5.76109,3.39545 0.11821,-0.073 0.21492,-1.5995 0.21492,-3.39211 z m 100.4957603,1.43363 1.144722,-0.70781 -1.277012,-0.7954 c -2.1201,-1.32053 -3.18262,-1.93157 -3.35877,-1.93157 -0.092,0 -0.1672,1.26147 -0.1672,2.80326 v 2.80327 l 1.25677,-0.73198 c 0.69122,-0.40258 1.77189,-1.05048 2.40149,-1.43977 z m 50.581322,-1.144 v -2.47173 l -2.89992,-1.76161 c -1.59496,-0.96888 -2.96864,-1.76161 -3.05264,-1.76161 -0.084,0 -0.11848,1.0937 -0.0766,2.43045 l 0.0761,2.43045 2.91042,1.7824 c 1.60073,0.98033 2.94018,1.79162 2.97656,1.80289 0.0364,0.0113 0.0661,-1.0918 0.0661,-2.45124 z m -48.14019,-0.50485 c -0.008,-0.10914 -0.014,-1.61958 -0.014,-3.35655 v -3.15811 l -2.882392,-1.73668 c -1.58532,-0.95517 -2.95453,-1.73668 -3.04271,-1.73668 -0.0882,0 -0.16031,1.58599 -0.16031,3.52442 v 3.52442 l 2.71198,1.63202 c 2.465062,1.48343 3.425942,1.85423 3.387412,1.30716 z m 53.69644,-3.20791 v -3.53864 l -2.26914,-1.35615 c -1.24802,-0.74588 -2.31958,-1.35615 -2.38125,-1.35615 -0.0617,0 -0.11211,1.59874 -0.11211,3.55276 v 3.55276 l 2.18281,1.3338 c 1.20055,0.73359 2.27211,1.3375 2.38125,1.34203 0.10914,0.005 0.19844,-1.58416 0.19844,-3.53041 z M -8.1273923,209.47644 c 0,-1.99725 -0.11025,-3.49211 -0.26458,-3.58749 -0.17142,-0.10595 -0.26458,1.09968 -0.26458,3.42396 0,2.21527 0.1012,3.58749 0.26458,3.58749 0.16276,0 0.26458,-1.31771 0.26458,-3.42396 z m 113.1580223,2.07166 2.23881,-1.3523 -2.15658,-1.29638 c -1.18612,-0.713 -2.26634,-1.22853 -2.4005,-1.14562 -0.26612,0.16447 -0.34572,5.1466 -0.0822,5.1466 0.0889,0 1.16915,-0.60853 2.40049,-1.3523 z m 37.91893,-1.88884 -1.3e-4,-2.4474 -2.79122,-1.65364 c -1.53517,-0.90951 -2.90433,-1.65365 -3.04258,-1.65365 -0.13964,0 -0.25136,1.03101 -0.25136,2.31978 v 2.31978 l 2.97657,1.77928 c 1.63711,0.9786 3.00632,1.78017 3.04271,1.78126 0.0364,0.001 0.0661,-1.09934 0.066,-2.44541 z m 6.67079,-6.33361 c -0.37924,-0.37924 -5.40086,-3.38983 -5.65418,-3.38983 -0.13279,0 -0.20544,1.54906 -0.16426,3.50243 l 0.0738,3.50244 2.91042,1.77465 2.91042,1.77466 0.0741,-3.46993 c 0.0408,-1.90846 -0.0269,-3.57095 -0.15035,-3.69442 z m -54.564292,3.15861 c -0.002,-1.78263 -0.0915,-3.37437 -0.19844,-3.53721 -0.20607,-0.31385 -2.78093,-1.9529 -3.06792,-1.9529 -0.0931,0 -0.16917,1.59586 -0.16917,3.54634 v 3.54634 l 1.38906,0.8044 c 0.76398,0.44242 1.53789,0.8111 1.71979,0.81929 0.2476,0.0111 0.32971,-0.79974 0.32668,-3.22626 z m 13.439392,-0.24529 0.0739,-3.34766 -2.84852,-1.71922 c -1.56668,-0.94557 -2.93938,-1.66306 -3.05044,-1.59442 -0.11106,0.0686 -0.20193,1.5876 -0.20193,3.37547 0,2.91907 0.0542,3.29972 0.53134,3.73152 0.93087,0.84243 4.61279,3.00629 5.02491,2.95314 0.3247,-0.0419 0.41031,-0.66002 0.47076,-3.39883 z m 5.17223,0.0382 c 0.21441,-0.18724 -3.56187,-2.63717 -4.06487,-2.63717 -0.14683,0 -0.2552,1.12116 -0.2552,2.64013 v 2.64014 l 2.05052,-1.22591 c 1.12779,-0.67425 2.14909,-1.31199 2.26955,-1.41719 z m 22.40284,-0.76722 v -2.36338 l -2.84078,-1.71455 c -1.56243,-0.94301 -2.93164,-1.6584 -3.0427,-1.58976 -0.11106,0.0686 -0.20193,1.12176 -0.20193,2.34027 v 2.21548 l 2.84427,1.72878 c 1.56435,0.95082 2.93357,1.73277 3.04271,1.73766 0.10914,0.005 0.19843,-1.05464 0.19843,-2.3545 z m 6.87917,-2.7703 v -3.54618 l -2.90681,-1.74549 c -1.59874,-0.96001 -2.96796,-1.74548 -3.0427,-1.74548 -0.0747,0 -0.13591,1.59211 -0.13591,3.53802 v 3.53802 l 2.84428,1.73098 c 1.56434,0.95204 2.93356,1.74118 3.0427,1.75365 0.10914,0.0125 0.19844,-1.57312 0.19844,-3.52352 z m -41.275,-0.35923 v -3.64084 l -2.050522,-1.22633 c -1.12778,-0.67448 -2.50045,-1.49069 -3.05037,-1.81378 l -0.99986,-0.58745 0.0738,3.66867 0.0738,3.66868 2.91041,1.77104 c 1.600732,0.97407 2.940192,1.77774 2.976572,1.78594 0.0364,0.008 0.0661,-1.62348 0.0661,-3.62593 z m 13.93406,-0.30541 -0.0635,-3.04102 -2.97915,-1.79804 c -1.63854,-0.98892 -3.03646,-1.79804 -3.10648,-1.79804 -0.07,0 -0.0941,1.57564 -0.0535,3.50143 l 0.0738,3.50142 2.64583,1.61741 c 3.50604,2.14326 3.56849,2.1077 3.48302,-1.98316 z m 39.77311,0.0436 -0.003,-3.63802 -2.03993,-1.19062 c -1.12197,-0.65485 -2.19559,-1.2298 -2.38583,-1.27768 -0.27446,-0.0691 -0.33062,0.63271 -0.27193,3.3977 l 0.074,3.48476 2.24896,1.40809 c 1.23692,0.77446 2.27872,1.41838 2.3151,1.43095 0.0364,0.0126 0.0647,-1.61427 0.0629,-3.61518 z m -35.91561,0.74366 c 0.39926,-0.22711 0.72668,-0.55644 0.7276,-0.73184 0.002,-0.28713 -3.34071,-2.45921 -3.78403,-2.45921 -0.10067,0 -0.18304,1.1424 -0.18304,2.53868 v 2.53868 l 1.25677,-0.73669 c 0.69122,-0.40518 1.58344,-0.92251 1.9827,-1.14962 z m 9.72511,-1.44864 v -2.49092 l -1.12448,-0.64106 c -0.61846,-0.35258 -1.57096,-0.9103 -2.11667,-1.23938 l -0.99219,-0.59832 v 2.47509 2.47509 l 2.05053,1.24558 c 1.12778,0.68507 2.08028,1.24991 2.11666,1.25521 0.0364,0.005 0.0661,-1.11128 0.0661,-2.48129 z m 20.6375,-2.65157 v -3.55499 l -2.8824,-1.73668 c -1.58531,-0.95517 -2.95453,-1.73667 -3.0427,-1.73667 -0.0882,0 -0.16032,1.54929 -0.16032,3.44287 v 3.44287 l 1.43217,0.91614 c 1.48382,0.94919 4.47107,2.75408 4.5871,2.77151 0.0364,0.005 0.0661,-1.58981 0.0661,-3.54505 z m -13.76308,-0.21532 -0.005,-3.50573 -2.69329,-1.5875 c -1.48131,-0.87313 -2.85191,-1.62668 -3.04579,-1.67455 -0.28306,-0.0699 -0.33792,0.60763 -0.27852,3.43958 l 0.074,3.52664 2.77812,1.65161 c 1.52797,0.9084 2.86743,1.65254 2.97657,1.65365 0.10914,0.001 0.1963,-1.57555 0.19369,-3.5037 z m -41.005672,-0.0368 c 0,-3.72204 -0.0518,-3.84196 -2.18281,-5.05358 l -1.25677,-0.71455 0.005,3.66316 0.005,3.66316 1.38443,0.8366 c 0.76144,0.46012 1.53326,0.84707 1.71516,0.85989 0.24804,0.0175 0.33073,-0.79625 0.33073,-3.25468 z m 13.487842,-0.22775 -0.006,-3.50572 -2.73863,-1.65365 c -1.50625,-0.90951 -2.87281,-1.65365 -3.03681,-1.65365 -0.44032,0 -0.40964,6.49379 0.0326,6.89021 0.48786,0.43735 5.32457,3.41742 5.55625,3.42341 0.10914,0.003 0.19578,-1.57244 0.19253,-3.5006 z m 20.64341,-3.75049 v -3.55206 l -1.99376,-1.21044 c -1.09657,-0.66574 -2.04907,-1.21044 -2.11667,-1.21044 -0.0676,0 -0.12291,1.58972 -0.12291,3.53272 v 3.53272 l 1.91823,1.20343 c 1.05503,0.66188 2.00753,1.21528 2.11667,1.22978 0.10914,0.0145 0.19844,-1.57208 0.19844,-3.52571 z m 13.75833,0.0435 v -3.50854 l -2.05052,-1.22634 c -1.12779,-0.67448 -2.497,-1.48865 -3.04271,-1.80926 l -0.99219,-0.58293 v 3.57219 3.57219 l 2.84428,1.72981 c 1.56434,0.9514 2.93356,1.73693 3.0427,1.74562 0.10914,0.009 0.19844,-1.56305 0.19844,-3.49274 z m -41.37417,-3.7766 c -0.1135,-0.29577 -5.444562,-3.56279 -5.813702,-3.56279 -0.10335,0 -0.15468,1.57644 -0.11408,3.50319 l 0.0738,3.50319 2.91041,1.74939 2.910422,1.74939 0.0744,-3.32036 c 0.0409,-1.82619 0.0224,-3.45609 -0.0413,-3.62201 z m 53.80634,3.11795 -0.003,-3.63802 -2.03993,-1.19063 c -1.12197,-0.65484 -2.19559,-1.2298 -2.38583,-1.27767 -0.27456,-0.0691 -0.33065,0.63872 -0.27193,3.43175 l 0.074,3.51881 2.24896,1.39183 c 1.23692,0.76551 2.27872,1.39411 2.3151,1.39689 0.0364,0.003 0.0647,-1.63205 0.0629,-3.63296 z m -19.31062,-3.62935 -0.13301,-3.43092 -2.77812,-1.6541 c -1.52797,-0.90975 -2.87088,-1.65779 -2.98424,-1.66232 -0.11337,-0.005 -0.1729,1.56788 -0.1323,3.49422 l 0.0738,3.50244 2.91042,1.77492 c 1.60073,0.97621 2.97027,1.69207 3.04342,1.5908 0.0732,-0.10127 0.0732,-1.72804 0,-3.61504 z m 13.75762,0.2728 v -3.555 l -2.8824,-1.73668 c -1.58531,-0.95517 -2.95453,-1.73668 -3.0427,-1.73668 -0.0882,0 -0.16032,1.58243 -0.16032,3.51651 v 3.51651 l 2.84427,1.75651 c 1.56435,0.96608 2.93357,1.7649 3.04271,1.77516 0.10914,0.0103 0.19844,-1.58109 0.19844,-3.53633 z m -54.827032,-0.49617 0.074,-3.34642 -1.26464,-0.79411 c -2.15381,-1.35245 -2.19067,-1.31046 -2.19067,2.49539 v 3.29954 l 1.38906,0.91335 c 0.76398,0.50235 1.50812,0.88305 1.65364,0.84601 0.15388,-0.0392 0.29556,-1.46761 0.3386,-3.41376 z m 34.189532,-3.72391 v -3.54172 l -1.91823,-1.12681 c -1.05503,-0.61975 -2.00753,-1.17613 -2.11667,-1.2364 -0.10914,-0.0603 -0.19844,1.4961 -0.19844,3.45859 v 3.56817 l 1.91823,1.19018 c 1.05503,0.6546 2.00753,1.19907 2.11667,1.20995 0.10914,0.0109 0.19844,-1.574 0.19844,-3.52196 z m 13.75833,0.0264 v -3.51534 l -2.78715,-1.64404 c -1.53293,-0.90422 -2.9056,-1.64404 -3.05038,-1.64404 -0.16503,0 -0.2357,1.30261 -0.18942,3.49145 l 0.0738,3.49144 2.77812,1.66727 c 1.52797,0.91699 2.86742,1.66756 2.97656,1.66793 0.10914,3.7e-4 0.19844,-1.58123 0.19844,-3.51467 z m 12.43542,-0.55248 v -3.53864 l -2.26914,-1.35615 c -1.24802,-0.74588 -2.31958,-1.35615 -2.38125,-1.35615 -0.0617,0 -0.11211,1.54312 -0.11211,3.42916 0,2.40728 0.0985,3.51835 0.33073,3.72849 0.44906,0.40646 3.9854,2.58919 4.23333,2.61294 0.10914,0.0104 0.19844,-1.57338 0.19844,-3.51965 z m -19.5508,-7.12215 c -0.5518,-0.5518 -5.43317,-3.32343 -5.63429,-3.19913 -0.1182,0.073 -0.21491,1.5995 -0.21491,3.3921 0,3.76677 -0.29676,3.28827 3.41228,5.5021 l 2.54084,1.51657 0.0741,-3.47972 c 0.0418,-1.96201 -0.0359,-3.58972 -0.17806,-3.73192 z m 13.99455,3.81403 c 0,-2.68416 -0.083,-3.4761 -0.39128,-3.73192 -0.62688,-0.52026 -5.19856,-3.17965 -5.46605,-3.17965 -0.13967,0 -0.21198,1.49438 -0.16962,3.50573 l 0.0738,3.50573 2.7525,1.65365 c 1.51388,0.9095 2.85333,1.65364 2.97657,1.65364 0.12323,0 0.22406,-1.53323 0.22406,-3.40718 z m -6.87917,-4.11656 v -3.55499 l -2.88239,-1.73667 c -1.58532,-0.95518 -2.95454,-1.73668 -3.04271,-1.73668 -0.0882,0 -0.16032,1.54425 -0.16032,3.43166 v 3.43166 l 0.72761,0.53073 c 1.03169,0.75252 4.92178,3.14044 5.15937,3.16705 0.10914,0.0122 0.19844,-1.57751 0.19844,-3.53276 z m -13.75833,-0.25131 v -3.54172 l -1.91823,-1.12682 c -1.05503,-0.61974 -2.01095,-1.17823 -2.12427,-1.24109 -0.11332,-0.0628 -0.17285,1.52269 -0.13229,3.52343 l 0.0737,3.63771 1.85208,1.13781 c 1.01865,0.62579 1.94138,1.14109 2.05052,1.1451 0.10914,0.004 0.19844,-1.58647 0.19844,-3.53442 z m 26.1905,-0.49318 -0.003,-3.50572 -2.03993,-1.19063 c -1.12197,-0.65484 -2.19207,-1.22912 -2.37801,-1.27617 -0.26143,-0.0661 -0.33807,0.69433 -0.33807,3.35432 v 3.43987 l 2.18281,1.3338 c 1.20055,0.73359 2.27211,1.3375 2.38125,1.34203 0.10914,0.005 0.19698,-1.56934 0.19519,-3.4975 z m -5.553,-3.22426 v -3.55499 l -2.8824,-1.73667 c -1.58531,-0.95518 -2.95799,-1.73668 -3.05038,-1.73668 -0.0924,0 -0.13478,1.57609 -0.0942,3.50243 l 0.0738,3.50244 2.91042,1.78288 c 1.60073,0.98059 2.94018,1.78575 2.97656,1.78924 0.0364,0.003 0.0661,-1.5934 0.0661,-3.54865 z m -13.76031,-0.21532 -0.002,-3.50573 -2.92225,-1.7716 c -1.95569,-1.18564 -2.96426,-1.6621 -3.04928,-1.44053 -0.0699,0.18209 -0.0934,1.79536 -0.0523,3.58506 l 0.0747,3.25398 2.77812,1.69146 c 1.52797,0.93029 2.86743,1.69182 2.97657,1.69227 0.10914,4.5e-4 0.19754,-1.57676 0.19646,-3.50491 z m -6.97545,-7.48118 c -0.107,-0.27886 -3.64685,-2.50684 -3.98289,-2.50684 -0.0837,0 -0.15219,1.59508 -0.15219,3.54463 v 3.54463 l 2.05053,1.2089 2.05052,1.2089 0.0744,-3.35047 c 0.0409,-1.84277 0.0228,-3.48515 -0.0404,-3.64975 z m 13.85659,3.51036 v -3.50781 l -2.75431,-1.65157 c -1.51487,-0.90836 -2.88409,-1.65157 -3.04271,-1.65157 -0.1932,0 -0.2884,1.12415 -0.2884,3.40573 v 3.40573 l 2.84428,1.73098 c 1.56434,0.95204 2.93356,1.74118 3.0427,1.75365 0.10914,0.0125 0.19844,-1.55585 0.19844,-3.48514 z m 12.33458,-4.04625 c -0.1138,-0.29658 -4.12586,-2.7647 -4.49416,-2.7647 -0.10057,0 -0.14964,1.57406 -0.10904,3.4979 l 0.0738,3.4979 2.24896,1.38537 2.24896,1.38537 0.0744,-3.34792 c 0.0409,-1.84136 0.0216,-3.48562 -0.043,-3.65392 z m -19.21303,-0.24249 -0.13301,-3.43091 -2.77812,-1.6541 c -1.52797,-0.90975 -2.87088,-1.65779 -2.98424,-1.66231 -0.11337,-0.005 -0.1729,1.56158 -0.1323,3.48024 l 0.0738,3.48846 2.91042,1.76906 c 1.60073,0.97298 2.97027,1.69513 3.04342,1.60477 0.0732,-0.0904 0.0732,-1.70821 0,-3.59521 z m 13.75762,0.2905 v -3.5373 l -2.93116,-1.75437 c -1.61213,-0.9649 -2.98135,-1.75437 -3.0427,-1.75437 -0.0614,0 -0.11156,1.59211 -0.11156,3.53802 v 3.53802 l 2.84427,1.73098 c 1.56435,0.95204 2.93357,1.74118 3.04271,1.75365 0.10914,0.0125 0.19844,-1.56912 0.19844,-3.51463 z m -6.88392,-4.06948 -0.005,-3.63802 -2.69329,-1.5875 c -1.48131,-0.87313 -2.85192,-1.62668 -3.04579,-1.67455 -0.28301,-0.0699 -0.33791,0.60474 -0.27852,3.42231 l 0.074,3.50937 2.91041,1.78273 c 1.60073,0.98049 2.94018,1.79194 2.97657,1.8032 0.0364,0.0113 0.064,-1.61663 0.0614,-3.61754 z m -13.75358,-0.16828 v -3.54173 l -1.91823,-1.12681 c -1.05503,-0.61975 -2.00753,-1.17612 -2.11667,-1.23639 -0.10914,-0.0603 -0.19844,1.48717 -0.19844,3.43875 v 3.54834 l 1.91823,1.20343 c 1.05503,0.66188 2.00753,1.21528 2.11667,1.22978 0.10914,0.0145 0.19844,-1.56743 0.19844,-3.51537 z m 26.19375,-0.53645 v -3.549 l -2.2361,-1.34579 c -1.22986,-0.74019 -2.30142,-1.34579 -2.38125,-1.34579 -0.0798,0 -0.14515,1.59874 -0.14515,3.55276 v 3.55276 l 2.18281,1.3338 c 1.20055,0.73358 2.27211,1.3375 2.38125,1.34202 0.10914,0.005 0.19844,-1.58881 0.19844,-3.54076 z m -5.55945,-3.26402 -0.003,-3.63802 -2.77379,-1.65365 c -1.52558,-0.9095 -2.89681,-1.65364 -3.04718,-1.65364 -0.17809,0 -0.24766,1.22096 -0.19957,3.50243 l 0.0738,3.50243 2.91042,1.78289 c 1.60073,0.98059 2.94018,1.78574 2.97656,1.78923 0.0364,0.003 0.0647,-1.63076 0.063,-3.63167 z m -13.75514,-0.32561 -0.13229,-3.48648 -2.77374,-1.67635 c -1.52556,-0.92199 -2.86501,-1.61993 -2.97656,-1.55099 -0.11155,0.0689 -0.20282,1.58815 -0.20282,3.37602 0,2.76269 0.0695,3.31245 0.46302,3.66224 0.66491,0.59103 5.43735,3.35654 5.60988,3.25079 0.0797,-0.0488 0.0853,-1.65767 0.0125,-3.57523 z m 6.82049,-3.88993 -0.0736,-3.62022 -2.77813,-1.66695 c -1.52796,-0.91682 -2.86742,-1.66897 -2.97656,-1.67144 -0.10914,-0.002 -0.19844,1.53975 -0.19844,3.42717 v 3.43166 l 0.73568,0.54391 c 1.00728,0.74471 4.90474,3.12799 5.15877,3.15456 0.11325,0.0118 0.17278,-1.60756 0.13229,-3.59869 z m -13.69965,-0.15442 v -3.51006 l -1.52136,-0.9016 c -0.83674,-0.49588 -1.78924,-1.07317 -2.11666,-1.28287 l -0.59532,-0.38127 0.009,3.66845 0.009,3.66846 1.90962,1.10981 c 1.05029,0.61039 1.99891,1.11641 2.10805,1.12448 0.10914,0.008 0.19844,-1.56486 0.19844,-3.4954 z m 26.1905,-0.39254 -0.003,-3.63802 -2.03993,-1.19063 c -1.12197,-0.65484 -2.19559,-1.2298 -2.38583,-1.27767 -0.27453,-0.0691 -0.33064,0.63702 -0.27193,3.42213 l 0.074,3.50918 2.24896,1.37965 c 1.23692,0.75881 2.27872,1.39174 2.3151,1.40652 0.0364,0.0148 0.0647,-1.61025 0.0629,-3.61116 z m -5.64545,-6.80459 c -0.0997,-0.2598 -5.5273,-3.5803 -5.85228,-3.5803 -0.0774,0 -0.14069,1.53323 -0.14069,3.40718 0,3.93619 -0.30493,3.43128 3.41228,5.65003 l 2.54085,1.5166 0.0744,-3.35469 c 0.0409,-1.84508 0.0254,-3.48254 -0.0346,-3.63882 z m -13.66589,3.21721 v -3.52123 l -2.92701,-1.74881 c -1.91895,-1.14652 -2.96981,-1.6373 -3.05127,-1.42503 -0.0683,0.17808 -0.0906,1.79906 -0.0495,3.60217 l 0.0747,3.27839 2.77812,1.6672 c 1.52797,0.91696 2.86743,1.6675 2.97657,1.66787 0.10914,3.7e-4 0.19843,-1.58388 0.19843,-3.52056 z m -6.93784,-4.06491 -0.0736,-3.61739 -1.85209,-1.13781 c -1.01864,-0.62579 -1.94138,-1.14109 -2.05052,-1.14511 -0.10914,-0.004 -0.19844,1.58243 -0.19844,3.52543 v 3.53272 l 1.91823,1.20343 c 1.05503,0.66188 2.01089,1.21528 2.12414,1.22977 0.11324,0.0145 0.17278,-1.60147 0.13229,-3.59104 z m 13.81701,0.10885 v -3.50853 l -2.05052,-1.22634 c -1.12779,-0.67448 -2.497,-1.48865 -3.04271,-1.80926 l -0.99219,-0.58293 v 3.58014 3.58014 l 2.84428,1.72878 c 1.56434,0.95083 2.93356,1.73277 3.0427,1.73766 0.10914,0.005 0.19844,-1.56996 0.19844,-3.49966 z m 12.43217,-0.65864 -0.003,-3.63802 -2.03993,-1.19063 c -1.12197,-0.65484 -2.19559,-1.2298 -2.38583,-1.27768 -0.27456,-0.0691 -0.33065,0.63873 -0.27193,3.43176 l 0.074,3.5188 2.24896,1.39184 c 1.23692,0.76551 2.27872,1.39411 2.3151,1.39689 0.0364,0.003 0.0647,-1.63205 0.0629,-3.63296 z m -19.29738,-3.75668 -0.14625,-3.29366 -2.77812,-1.66661 c -1.52797,-0.91663 -2.87088,-1.6669 -2.98424,-1.66727 -0.11337,-3.7e-4 -0.1729,1.57542 -0.1323,3.50176 l 0.0738,3.50243 2.90886,1.77322 c 1.91116,1.16504 2.95955,1.66529 3.05666,1.45851 0.0813,-0.1731 0.082,-1.79687 0.002,-3.60838 z m 13.74438,0.40013 v -3.55499 l -2.8824,-1.73668 c -1.58531,-0.95517 -2.95453,-1.73668 -3.0427,-1.73668 -0.0882,0 -0.16032,1.54312 -0.16032,3.42915 0,2.40654 0.0986,3.51884 0.33073,3.72991 0.4387,0.39893 5.3022,3.37883 5.55625,3.40434 0.10914,0.011 0.19844,-1.57981 0.19844,-3.53505 z m -6.87917,-4.05386 v -3.64009 l -2.75431,-1.65158 c -1.51487,-0.90836 -2.88755,-1.65157 -3.05039,-1.65157 -0.20714,0 -0.2739,1.04786 -0.22225,3.48846 l 0.0738,3.48847 2.91041,1.78272 c 1.60073,0.9805 2.94018,1.79194 2.97657,1.80321 0.0364,0.0113 0.0661,-1.61757 0.0661,-3.61962 z m -13.75833,-0.16621 v -3.54172 l -1.91823,-1.12681 c -1.05503,-0.61975 -2.00753,-1.17613 -2.11667,-1.2364 -0.10914,-0.0603 -0.19844,1.4961 -0.19844,3.45858 v 3.56817 l 1.91823,1.19018 c 1.05503,0.65459 2.00753,1.19907 2.11667,1.20995 0.10914,0.0109 0.19844,-1.574 0.19844,-3.52195 z m 26.19375,-0.3938 v -3.67093 l -2.26914,-1.35615 c -1.24802,-0.74588 -2.31958,-1.35615 -2.38125,-1.35615 -0.0617,0 -0.11211,1.59615 -0.11211,3.54699 v 3.54698 l 2.3151,1.455 c 1.27331,0.80024 2.34487,1.46629 2.38125,1.4801 0.0364,0.0138 0.0661,-1.62682 0.0661,-3.64584 z M 21.770528,136.73084 c 0,-1.92542 -0.0503,-2.11918 -0.65215,-2.51355 -0.35868,-0.23501 -0.71587,-0.4273 -0.79375,-0.4273 -0.0779,0 -0.1416,0.98822 -0.1416,2.19604 0,2.26603 0.22178,2.83104 1.11125,2.83104 0.41834,0 0.47625,-0.25365 0.47625,-2.08623 z m -2.49763,-3.10394 c -0.0947,-0.37746 -1.06968,-1.11931 -2.87596,-2.18835 -1.50295,-0.88952 -2.87327,-1.61731 -3.04515,-1.61731 -0.21375,0 -0.31251,0.65628 -0.31251,2.07663 v 2.07664 l 3.10885,1.88399 3.10886,1.884 0.0796,-1.77229 c 0.0438,-0.97475 0.0151,-2.02924 -0.0637,-2.34331 z m 130.451022,-3.16833 c -0.12561,-0.32733 -5.34723,-3.54775 -5.75236,-3.54775 -0.12547,0 -0.22812,1.53971 -0.22812,3.42157 v 3.42157 l 0.72761,0.51752 c 0.40018,0.28463 1.73963,1.12587 2.97656,1.8694 l 2.24896,1.35189 0.0744,-3.35875 c 0.0409,-1.84732 0.0197,-3.50127 -0.0471,-3.67545 z m -13.71207,3.15944 -0.0736,-3.61156 -2.77812,-1.67935 c -1.52797,-0.92364 -2.86742,-1.67969 -2.97656,-1.68011 -0.10915,-4.1e-4 -0.19844,1.53248 -0.19844,3.40644 0,2.75672 0.0784,3.47225 0.41067,3.74801 0.58024,0.48155 5.23513,3.36864 5.48377,3.40118 0.11325,0.0148 0.17278,-1.59825 0.1323,-3.58461 z M 21.770528,130.12829 v -3.6617 l -0.67391,-0.30705 c -0.37065,-0.16888 -0.72784,-0.30705 -0.79375,-0.30705 -0.0659,0 -0.11984,1.57977 -0.11984,3.51059 v 3.5106 l 0.7276,0.45111 c 0.40019,0.24812 0.75737,0.45429 0.79375,0.45816 0.0364,0.004 0.0661,-1.64072 0.0661,-3.65466 z m -9.26447,1.34659 c -0.002,-1.12778 -0.0915,-2.1772 -0.19844,-2.33203 -0.41145,-0.59588 -5.7003303,-3.57879 -5.9329603,-3.34616 -0.13165,0.13165 -0.20402,1.1133 -0.16081,2.18145 l 0.0785,1.94208 2.91042,1.78211 c 1.6007303,0.98017 2.9997103,1.79133 3.1088603,1.8026 0.10914,0.0113 0.19661,-0.90226 0.19438,-2.03005 z M 142.94969,129.6993 v -3.56153 l -2.93249,-1.73014 c -1.61287,-0.95158 -2.98209,-1.73014 -3.04271,-1.73014 -0.0606,0 -0.11022,1.5993 -0.11022,3.55401 v 3.554 l 2.84428,1.72878 c 1.56434,0.95083 2.93356,1.73277 3.0427,1.73766 0.10914,0.005 0.19844,-1.5938 0.19844,-3.55264 z m -13.75833,-0.24478 v -3.54172 l -1.91823,-1.12682 c -1.05503,-0.61974 -2.00753,-1.17612 -2.11667,-1.23639 -0.10914,-0.0603 -0.19456,1.53456 -0.18982,3.54405 l 0.009,3.65364 1.90962,1.10981 c 1.05029,0.6104 1.99891,1.11642 2.10805,1.12448 0.10914,0.008 0.19844,-1.57911 0.19844,-3.52705 z m 26.1905,-0.36089 -0.003,-3.63802 -2.03993,-1.19062 c -1.12197,-0.65484 -2.19207,-1.22912 -2.37801,-1.27617 -0.2614,-0.0662 -0.33807,0.69324 -0.33807,3.34854 v 3.4341 l 2.3151,1.45499 c 1.27331,0.80025 2.34487,1.4663 2.38125,1.4801 0.0364,0.0138 0.0647,-1.612 0.0629,-3.61292 z M 19.389278,128.65601 c 0,-3.75215 0.2385,-3.34945 -3.19823,-5.40013 -3.46128,-2.06534 -3.15177,-2.23642 -3.15177,1.74215 0,2.77373 0.0787,3.50077 0.4083,3.77436 0.86306,0.71627 5.54979,3.3765 5.74074,3.25849 0.11053,-0.0683 0.20096,-1.58701 0.20096,-3.37487 z M 5.5114677,125.41248 c -0.0981,-0.39098 -1.08425,-1.14988 -2.99003,-2.30107 l -2.84362004,-1.71769 -0.13229,2.16324 c -0.0794,1.29784 -0.0264,2.23808 0.13229,2.35031 0.14552,0.10289 1.51474004,0.94353 3.04271004,1.86808 l 2.77812,1.68101 0.0796,-1.73025 c 0.0438,-0.95165 0.0137,-1.99278 -0.0668,-2.31363 z M 135.91214,122.28993 c -0.27822,-0.49759 -5.18188,-3.58119 -5.69494,-3.58119 -0.1448,0 -0.21683,1.45291 -0.17363,3.50243 l 0.0738,3.50243 2.91042,1.77506 2.91041,1.77506 0.13229,-3.22697 c 0.0859,-2.09471 0.0303,-3.40937 -0.15838,-3.74682 z m 13.91672,3.46485 v -3.53729 l -2.93116,-1.75438 c -1.61213,-0.9649 -2.98135,-1.75437 -3.0427,-1.75437 -0.0614,0 -0.11156,1.5397 -0.11156,3.42157 v 3.42156 l 0.72761,0.51752 c 0.72958,0.51894 5.16747,3.22123 5.29166,3.22218 0.0364,2.7e-4 0.0661,-1.59128 0.0661,-3.53679 z m -137.377212,-1.27366 -0.0738,-3.48803 -2.9538203,-1.78228 c -1.6246,-0.98025 -3.02359,-1.71251 -3.10885,-1.62724 -0.19564,0.19563 -0.19794,5.83336 -0.003,6.56017 0.14271,0.53121 5.1671903,3.7945 5.8745903,3.81541 0.26183,0.008 0.32171,-0.7793 0.26459,-3.47803 z m 8.73166,-6.35457 c -0.33187,-0.25541 -0.6927,-0.46703 -0.80184,-0.47026 -0.10914,-0.003 -0.19844,1.59766 -0.19844,3.55754 v 3.56343 l 0.7276,0.38167 0.72761,0.38167 0.0742,-3.47483 c 0.0715,-3.34804 0.0522,-3.49179 -0.52916,-3.93922 z m -22.5475703,3.10126 c -0.16585,-0.62027 -5.54855,-3.96978 -5.96544,-3.71213 -0.14769,0.0913 -0.26852,1.03388 -0.26852,2.09468 v 1.92873 l 3.10885,1.88399 3.10886,1.884 0.0796,-1.77228 c 0.0438,-0.97476 0.0153,-2.0129 -0.0634,-2.30699 z m 130.4969423,0.21775 -0.0736,-3.61318 -2.77813,-1.66639 c -1.52797,-0.91652 -2.86742,-1.67184 -2.97656,-1.67849 -0.10914,-0.007 -0.19844,1.14031 -0.19844,2.54881 v 2.5609 l 0.92604,0.84822 c 0.59303,0.54319 0.92604,1.09009 0.92604,1.52081 0,0.54911 0.35217,0.8911 1.91823,1.86277 1.05503,0.6546 2.01089,1.19908 2.12414,1.20996 0.11324,0.0109 0.17278,-1.60616 0.13229,-3.59341 z m 13.81565,0.10745 -0.001,-3.50573 -2.69163,-1.5875 c -1.48039,-0.87312 -2.84899,-1.626 -3.04134,-1.67305 -0.27636,-0.0676 -0.34972,0.63632 -0.34972,3.35581 v 3.44136 l 2.84428,1.71292 c 1.56434,0.94211 2.93356,1.72395 3.0427,1.73742 0.10914,0.0135 0.19783,-1.55308 0.19708,-3.48123 z m 12.33594,-4.04832 c -0.11237,-0.29286 -4.12362,-2.7647 -4.48648,-2.7647 -0.0963,0 -0.17518,1.52936 -0.17518,3.39858 0,3.88361 -0.17878,3.54314 2.77812,5.29063 l 1.85209,1.09455 0.0744,-3.35653 c 0.0409,-1.8461 0.0216,-3.49424 -0.043,-3.66253 z M 5.6268877,120.47906 c -0.002,-1.77404 -0.0915,-3.35221 -0.19843,-3.50705 -0.18547,-0.2686 -5.51298004,-3.55493 -5.76294004,-3.55493 -0.066,0 -0.11999,1.59935 -0.11999,3.55412 v 3.55412 l 2.84427004,1.70823 c 1.56435,0.93953 2.93357,1.65487 3.04271,1.58964 0.10914,-0.0652 0.19661,-1.57009 0.19438,-3.34413 z m 13.7047403,-0.19437 -0.0746,-3.27537 -2.91042,-1.78269 c -1.60073,-0.98047 -2.99971,-1.78872 -3.10885,-1.79612 -0.10914,-0.007 -0.19844,1.5198 -0.19844,3.39375 0,2.84021 0.0725,3.46761 0.43572,3.77031 1.06907,0.89096 5.5284,3.36838 5.71935,3.17743 0.11656,-0.11656 0.17834,-1.68585 0.13728,-3.48731 z m -27.4590203,-1.29575 c 0,-1.15558 -0.11906,-2.17464 -0.26458,-2.26458 -0.16852,-0.10415 -0.26458,0.65871 -0.26458,2.10106 0,1.33332 0.1088,2.26457 0.26458,2.26457 0.15418,0 0.26458,-0.87674 0.26458,-2.10105 z m 144.1986323,-1.71113 -0.13301,-3.4153 -2.77812,-1.66583 c -1.52797,-0.91621 -2.87088,-1.67127 -2.98424,-1.67793 -0.11337,-0.007 -0.1729,1.5607 -0.1323,3.483 l 0.0738,3.49509 2.91042,1.77962 c 1.60073,0.97878 2.97027,1.69794 3.04342,1.59813 0.0732,-0.0998 0.0732,-1.71836 0,-3.59678 z m 13.75762,0.28557 v -3.5266 l -2.89859,-1.7328 c -1.59422,-0.95303 -2.96344,-1.66794 -3.0427,-1.58867 -0.0793,0.0793 -0.14413,1.66406 -0.14413,3.52174 v 3.37762 l 2.84427,1.72878 c 1.56435,0.95082 2.93357,1.73277 3.04271,1.73766 0.10914,0.005 0.19844,-1.57809 0.19844,-3.51773 z M 12.510108,116.33046 v -3.40538 L 9.5717877,111.1867 c -1.61608,-0.9561 -3.04482,-1.73837 -3.175,-1.73837 -0.13017,0 -0.23668,1.48944 -0.23668,3.30988 0,2.82632 0.0676,3.36723 0.46302,3.70246 0.87174,0.73912 5.4898503,3.48182 5.6885503,3.37843 0.10914,-0.0568 0.19843,-1.63568 0.19843,-3.50864 z m -13.8906203,-0.15354 v -3.41376 l -2.9021,-1.76959 c -1.59616,-0.97327 -2.97001,-1.72761 -3.05301,-1.67631 -0.083,0.0513 -0.18326,1.50076 -0.22279,3.22102 -0.0538,2.34104 0.0202,3.25215 0.29442,3.62235 0.44584,0.60198 5.24837,3.59099 5.61889,3.4971 0.15926,-0.0404 0.26459,-1.42605 0.26459,-3.48081 z m 123.6927023,0.34693 v -2.71405 l -2.75431,-1.65157 c -1.51487,-0.90836 -2.88409,-1.65157 -3.04271,-1.65157 -0.18845,0 -0.28839,0.89558 -0.28839,2.58436 v 2.58436 l 2.97656,1.77928 c 1.63711,0.9786 3.00633,1.78017 3.04271,1.78126 0.0364,0.001 0.0661,-1.21934 0.0661,-2.71207 z M 21.770528,113.84438 c 0,-3.4721 -0.0128,-3.54981 -0.65215,-3.96875 -0.35868,-0.23502 -0.71587,-0.4273 -0.79375,-0.4273 -0.0779,0 -0.1416,1.59282 -0.1416,3.5396 0,3.37126 0.0283,3.55935 0.59531,3.95487 0.32742,0.2284 0.68461,0.42151 0.79375,0.42914 0.10914,0.008 0.19844,-1.57977 0.19844,-3.52756 z m 121.075112,-3.75641 c -0.13159,-0.34292 -5.31421,-3.55006 -5.73677,-3.55006 -0.16084,0 -0.23181,1.33533 -0.18613,3.50243 l 0.0738,3.50243 2.91041,1.77469 2.91042,1.77469 0.0744,-3.3449 c 0.0409,-1.83969 0.0202,-3.48637 -0.0462,-3.65928 z m -13.65428,3.25627 v -3.51242 l -2.74137,-1.64696 c -1.50775,-0.90582 -2.87697,-1.64695 -3.04271,-1.64695 -0.44314,0 -0.41547,6.48993 0.0294,6.89447 0.43871,0.39894 5.30221,3.37883 5.55625,3.40435 0.10914,0.011 0.19844,-1.56066 0.19844,-3.49249 z m 26.19375,-0.55539 v -3.53864 l -2.26914,-1.35615 c -1.24802,-0.74588 -2.31958,-1.35615 -2.38125,-1.35615 -0.0617,0 -0.11211,1.59054 -0.11211,3.53454 v 3.53454 l 2.18281,1.35313 c 1.20055,0.74422 2.27211,1.35633 2.38125,1.36025 0.10914,0.004 0.19844,-1.58527 0.19844,-3.53152 z M -8.1273923,112.09416 c 0,-1.98683 -0.11035,-3.47655 -0.26458,-3.57188 -0.17162,-0.10606 -0.26458,1.14899 -0.26458,3.57188 0,2.42289 0.093,3.67794 0.26458,3.57187 0.15423,-0.0953 0.26458,-1.58504 0.26458,-3.57187 z m 13.75834,0.27729 v -3.42687 l -1.12448,-0.75739 c -0.61847,-0.41657 -1.71979,-1.09683 -2.4474,-1.51169 -0.7276,-0.41487 -1.59427004,-0.92917 -1.92593004,-1.14288 l -0.603,-0.38857 0.0738,3.64865 0.0738,3.64865 2.77813004,1.66639 c 1.52797,0.91652 2.86742,1.67184 2.97656,1.67849 0.10914,0.007 0.19844,-1.53 0.19844,-3.41478 z m 13.7030003,0.36264 c 0.0423,-1.58889 0.0145,-3.14006 -0.0619,-3.44706 -0.14373,-0.5779 -5.7835,-4.16856 -6.08069,-3.87137 -0.32144,0.32144 -0.15896,6.65141 0.17862,6.95839 0.67237,0.61142 5.36685,3.3797 5.62239,3.31545 0.15012,-0.0377 0.29788,-1.31634 0.34155,-2.95541 z m 96.335812,0.0877 c -0.0408,-1.34606 -0.16648,-2.6407 -0.27919,-2.87696 -0.18482,-0.3874 -5.42895,-3.67147 -5.86274,-3.67147 -0.0991,0 -0.18022,1.18423 -0.18022,2.63164 v 2.63164 l 3.10885,1.8655 c 1.70987,1.02602 3.14906,1.86584 3.19821,1.86627 0.0491,4.3e-4 0.0559,-1.10055 0.0151,-2.44662 z m 6.54326,-6.9544 c -0.1135,-0.29578 -5.44456,-3.56278 -5.8137,-3.56278 -0.10335,0 -0.15468,1.5698 -0.11408,3.48846 l 0.0738,3.48846 2.91041,1.7553 2.91042,1.75531 0.0744,-3.31155 c 0.0409,-1.82135 0.0224,-3.44729 -0.0413,-3.6132 z m 13.8575,3.45827 v -3.56209 l -2.84427,-1.68981 c -1.56435,-0.92939 -2.93356,-1.64106 -3.0427,-1.58148 -0.10915,0.0596 -0.19844,1.63387 -0.19844,3.49843 v 3.39011 l 2.84427,1.73099 c 1.56435,0.95204 2.93357,1.74118 3.04271,1.75365 0.10914,0.0125 0.19843,-1.58036 0.19843,-3.53962 z m 13.69987,0.0766 -0.0738,-3.48572 -2.64584,-1.65721 c -1.45521,-0.91146 -2.79811,-1.66461 -2.98424,-1.67365 -0.26213,-0.0127 -0.32177,0.7728 -0.26458,3.48497 l 0.0738,3.50143 2.64584,1.64025 c 1.4552,0.90214 2.79811,1.64822 2.98424,1.65795 0.26212,0.0137 0.32176,-0.7681 0.26458,-3.46802 z M 12.506058,108.45614 c -0.002,-1.85539 -0.0915,-3.50012 -0.19844,-3.65496 -0.40545,-0.58718 -5.7002303,-3.57888 -5.9290503,-3.35006 -0.1295,0.1295 -0.20187,1.70622 -0.16081,3.50381 l 0.0746,3.26835 2.91042,1.78267 c 1.6007303,0.98047 2.9997103,1.79188 3.1088603,1.80315 0.10914,0.0113 0.19661,-1.49757 0.19438,-3.35296 z m -13.7583303,-0.13229 c -0.002,-1.78263 -0.0915,-3.37624 -0.19844,-3.54134 -0.25021,-0.38641 -5.46334,-3.53627 -5.85265,-3.53627 -0.32526,0 -0.40379,3.42607 -0.1304,5.68854 l 0.15985,1.32292 2.68212,1.63077 c 1.47516,0.89693 2.83094,1.64107 3.01284,1.65365 0.24803,0.0172 0.32972,-0.78755 0.32668,-3.21827 z m 109.8061323,-0.0378 v -2.74976 l -2.7302,-1.61587 c -1.50161,-0.88872 -2.87514,-1.61586 -3.05229,-1.61586 -0.23611,0 -0.30187,0.6841 -0.24636,2.56268 l 0.0757,2.56269 2.91042,1.78246 c 1.60073,0.98035 2.94018,1.79167 2.97656,1.80294 0.0364,0.0113 0.0661,-1.21692 0.0661,-2.72928 z m -87.332202,-6.31222 c -0.31245,-0.25466 -0.67396,-0.46302 -0.80336,-0.46302 -0.1294,0 -0.23506,1.57757 -0.2348,3.50573 l 4.7e-4,3.50572 0.72714,0.40749 0.72713,0.40748 0.0758,-3.45019 c 0.0715,-3.25641 0.0439,-3.4762 -0.49234,-3.91321 z m 107.969702,3.29768 v -3.64763 l -2.78715,-1.644034 c -1.53293,-0.904222 -2.9056,-1.644039 -3.05039,-1.644039 -0.16502,0 -0.23569,1.301599 -0.18941,3.488463 l 0.0738,3.48846 2.91042,1.78272 c 1.60073,0.9805 2.94018,1.79195 2.97656,1.80321 0.0364,0.0113 0.0661,-1.62095 0.0661,-3.62715 z m 13.75833,0.0932 v -3.55445 l -2.90095,-1.73722 c -1.59552,-0.955462 -2.96474,-1.737208 -3.0427,-1.737208 -0.078,0 -0.14177,1.592108 -0.14177,3.538018 v 3.53802 l 2.84428,1.73098 c 1.56434,0.95204 2.93356,1.74118 3.0427,1.75365 0.10914,0.0125 0.19844,-1.57684 0.19844,-3.53179 z m -27.42709,-0.19057 c -0.0235,-1.79654 -0.0533,-3.34017 -0.0661,-3.43029 -0.0223,-0.15617 -5.76461,-3.672602 -5.9973,-3.672602 -0.0614,0 -0.11155,1.533234 -0.11155,3.407182 0,2.84022 0.0725,3.46762 0.43572,3.77032 0.74977,0.62485 5.47683,3.38038 5.63322,3.28375 0.0818,-0.0506 0.12955,-1.56182 0.10605,-3.35836 z m 39.76581,-2.73991 c -0.0636,-0.16568 -0.81197,-0.71634 -1.66309,-1.22369 -0.85113,-0.50735 -1.87885,-1.13985 -2.28382,-1.40555 l -0.73631,-0.483097 0.0748,3.126387 0.0749,3.12638 2.24896,1.36135 2.24896,1.36135 0.0756,-2.78095 c 0.0416,-1.52952 0.0236,-2.9165 -0.04,-3.08218 z m -135.899132,1.88012 c 0,-2.76325 -0.0694,-3.31217 -0.46302,-3.66079 -0.65811,-0.5829 -5.32379,-3.376063 -5.63938,-3.376063 -0.1647,0 -0.23537,1.30876 -0.18913,3.502433 l 0.0738,3.50243 2.9021,1.76911 c 1.59615,0.97301 2.99514,1.71161 3.10885,1.64133 0.11372,-0.0703 0.20676,-1.59058 0.20676,-3.37845 z m -27.5166703,-0.14207 c 0,-1.99724 -0.11025,-3.49211 -0.26458,-3.58749 -0.17142,-0.10594 -0.26458,1.09968 -0.26458,3.42397 0,2.21527 0.1012,3.58749 0.26458,3.58749 0.16276,0 0.26458,-1.31771 0.26458,-3.42397 z m 13.69987,-0.0721 -0.0738,-3.4961 -1.98437,-1.215639 c -1.09141,-0.668604 -2.43086,-1.486321 -2.97656004,-1.81715 l -0.99219,-0.601508 0.0113,3.659597 0.0113,3.6596 2.70067004,1.6253 c 1.48537,0.89391 2.85296,1.63805 3.03909,1.65365 0.26257,0.022 0.32186,-0.75514 0.26458,-3.46775 z m 96.0974723,-0.01 -0.005,-2.71198 -2.693292,-1.587499 c -1.48131,-0.873125 -2.84839,-1.625996 -3.03796,-1.673046 -0.26562,-0.06593 -0.34467,0.511646 -0.34467,2.518215 V 103.24 l 2.97656,1.77928 c 1.637112,0.97861 3.006332,1.78017 3.042712,1.78127 0.0364,0.001 0.064,-1.21841 0.0614,-2.71 z m 48.15891,-2.16593 v -3.025821 l -2.8824,-1.736678 c -1.58531,-0.955172 -2.95453,-1.736676 -3.0427,-1.736676 -0.0882,0 -0.16032,1.295109 -0.16032,2.878021 0,2.348874 0.0801,2.944784 0.43572,3.241144 0.39722,0.33105 5.42915,3.39839 5.58355,3.4036 0.0364,0.001 0.0661,-1.35939 0.0661,-3.02359 z m -27.51667,-0.79375 v -3.554988 l -2.88239,-1.736677 c -1.58532,-0.955171 -2.95454,-1.736677 -3.04271,-1.736677 -0.0882,0 -0.1599,1.577579 -0.15939,3.505731 l 9.2e-4,3.505731 2.84335,1.7678 c 1.56384,0.97229 2.93264,1.77596 3.04178,1.78593 0.10914,0.01 0.19844,-1.5816 0.19844,-3.53685 z m 13.75833,0.0434 v -3.511607 l -2.70795,-1.58162 c -1.48938,-0.869892 -2.86212,-1.620795 -3.05053,-1.668673 -0.27027,-0.06868 -0.32697,0.65434 -0.26861,3.425298 l 0.074,3.512352 2.77812,1.66726 c 1.52797,0.91699 2.86743,1.66756 2.97657,1.66793 0.10914,3.7e-4 0.19843,-1.57955 0.19843,-3.51094 z m -27.57513,-0.24797 -0.0738,-3.495 -2.64584,-1.643946 c -1.4552,-0.90417 -2.79466,-1.65314 -2.97656,-1.664376 -0.2479,-0.01531 -0.32971,0.791277 -0.32668,3.220716 0.002,1.78263 0.0915,3.375826 0.19844,3.540446 0.21179,0.32608 5.35653,3.51568 5.69217,3.52899 0.11337,0.004 0.1729,-1.56458 0.13229,-3.48683 z m -109.7476623,-0.8201 c -0.002,-1.774038 -0.0915,-3.35382 -0.19844,-3.510625 -0.36941,-0.541792 -5.60289,-3.592142 -5.87476,-3.424118 -0.29778,0.184041 -0.33692,5.423226 -0.0479,6.418483 0.17383,0.59867 5.51629,4.06716 5.92675,3.84783 0.10914,-0.0583 0.19662,-1.55752 0.19439,-3.33157 z m 13.7039203,0.0189 -0.0738,-3.502429 -2.9021003,-1.769109 c -1.59615,-0.973011 -2.99514,-1.711607 -3.10885,-1.641329 -0.2335,0.144309 -0.27878,5.763435 -0.053,6.578845 0.14161,0.511462 5.1520503,3.764842 5.8732103,3.813582 0.26238,0.0177 0.32183,-0.76399 0.26459,-3.47956 z m 82.60846,0.18251 c 0,-2.825745 -0.11462,-3.034016 -2.36355,-4.294746 l -1.07603,-0.603213 v 2.728315 2.728314 l 1.65364,0.98016 c 0.90951,0.53909 1.68341,0.98178 1.71979,0.98375 0.0364,0.002 0.0662,-1.13318 0.0662,-2.52258 z m 34.072572,-3.193302 -0.0736,-3.60281 -2.76648,-1.688857 c -1.52156,-0.92887 -2.86101,-1.688856 -2.97656,-1.688856 -0.11555,0 -0.21009,1.533234 -0.21009,3.407187 0,2.756721 0.0784,3.472254 0.41068,3.748018 0.58023,0.481551 5.23512,3.36864 5.48377,3.40118 0.11324,0.0148 0.17278,-1.594315 0.13229,-3.575862 z m 13.81701,0.623439 v -2.979375 l -2.05052,-1.226333 c -1.12779,-0.674484 -2.497,-1.488652 -3.04271,-1.809262 l -0.99219,-0.582927 v 3.050975 3.050973 l 2.84428,1.728778 c 1.56434,0.950827 2.93356,1.732774 3.0427,1.737664 0.10914,0.005 0.19844,-1.331838 0.19844,-2.970493 z m -41.275,-0.847329 v -3.561971 l -2.913712,-1.72955 c -1.60254,-0.95125 -2.97176,-1.729548 -3.04271,-1.729548 -0.0709,0 -0.12899,1.533234 -0.12899,3.407186 0,2.670961 0.0838,3.476758 0.38794,3.729151 0.33626,0.279072 5.452062,3.398674 5.631332,3.433974 0.0364,0.007 0.0661,-1.58993 0.0661,-3.549096 z m 13.93211,0.295499 c -0.0282,-2.224556 -0.15037,-3.397927 -0.3828,-3.677885 -0.41302,-0.497495 -5.18658,-3.3741 -5.59912,-3.3741 -0.20267,0 -0.26993,1.06696 -0.2188,3.470546 l 0.0738,3.470545 2.76648,1.688831 c 1.52156,0.928856 2.90944,1.688826 3.08419,1.688826 0.23231,0 0.30656,-0.878077 0.27623,-3.266764 z M 5.6309477,95.956026 v -3.407083 l -2.8824,-1.736677 c -1.58531,-0.955172 -2.95453004,-1.736677 -3.04270004,-1.736677 -0.0882,0 -0.16032,1.592109 -0.16032,3.538019 v 3.538021 l 2.84427004,1.714174 c 1.56435,0.942796 2.93357,1.665379 3.04271,1.605741 0.10914,-0.05964 0.19844,-1.641621 0.19844,-3.515518 z M 56.565848,79.682882 c 18.22989,-10.986823 33.27466,-19.976042 33.43284,-19.976042 0.15817,0 15.133822,8.946169 33.279222,19.880376 18.14539,10.934206 33.17958,19.922784 33.40931,19.974616 0.54767,0.123569 30.0278,-17.686446 30.12771,-18.201245 0.0932,-0.480066 -95.919722,-58.430831 -96.808272,-58.430831 -0.66728,0 -97.0456403,57.940066 -97.0636503,58.352046 -0.0117,0.268501 29.7896203,18.372981 30.2478703,18.375739 0.12636,7.6e-4 15.14509,-8.987837 33.37497,-19.974659 z M -8.1273923,95.970371 c 0,-1.997243 -0.11025,-3.492106 -0.26458,-3.58749 -0.17142,-0.105944 -0.26458,1.099683 -0.26458,3.423968 0,2.215272 0.1012,3.587491 0.26458,3.587491 0.16276,0 0.26458,-1.317712 0.26458,-3.423969 z m 144.1979123,-2.687732 -0.13229,-2.702607 -2.91041,-1.78277 -2.91042,-1.782769 -0.0753,2.930217 c -0.0545,2.123703 0.0183,3.01978 0.26459,3.255613 0.18691,0.178968 1.53046,1.042377 2.98567,1.918688 1.93265,1.163822 2.68149,1.495303 2.77812,1.229763 0.0728,-0.19994 0.0728,-1.579701 0,-3.066135 z m -27.72517,-3.992221 c -0.58009,-0.580098 -5.43478,-3.367263 -5.64202,-3.239187 -0.12919,0.07984 -0.23489,1.611848 -0.23489,3.404451 0,3.766769 -0.29675,3.288269 3.41228,5.502098 l 2.54085,1.516565 0.0741,-3.479719 c 0.0408,-1.913846 -0.0269,-3.580739 -0.15036,-3.704208 z m 13.96684,3.684965 v -3.50854 l -2.05052,-1.226333 c -1.12779,-0.674484 -2.497,-1.488651 -3.04271,-1.809261 l -0.99218,-0.582929 v 3.580141 3.58014 l 2.84427,1.728778 c 1.56434,0.950827 2.93356,1.732774 3.0427,1.73766 0.10914,0.0049 0.19844,-1.56996 0.19844,-3.499656 z m -27.256132,0.0028 c -0.002,-1.78263 -0.0915,-3.376352 -0.19844,-3.541604 -0.1812,-0.28008 -2.84969,-1.948499 -3.11645,-1.948499 -0.0664,0 -0.12064,1.583044 -0.12064,3.517876 v 3.517878 l 1.38906,0.824129 c 0.76398,0.453271 1.53789,0.834758 1.71979,0.847748 0.24807,0.01772 0.32972,-0.786412 0.32668,-3.217528 z M -1.3067523,91.936925 c 0.0854,-3.838252 0.38851996,-3.335083 -3.35375,-5.568083 -2.99447,-1.786792 -2.81972,-1.934916 -2.90803,2.464891 -0.0461,2.293752 0.0205,2.864566 0.36772,3.152705 0.89285,0.741 5.30381,3.3791 5.55571,3.322751 0.15424,-0.0345 0.29535,-1.440946 0.33835,-3.372264 z M 115.66368,88.546412 c -0.027,-1.382447 -0.14566,-2.706846 -0.26361,-2.94311 -0.19639,-0.393407 -5.44626,-3.671472 -5.87992,-3.671472 -0.10335,0 -0.15468,1.576094 -0.11407,3.502433 l 0.0738,3.502431 2.91042,1.775022 2.91041,1.775021 0.20606,-0.713391 c 0.11334,-0.392366 0.18394,-1.844486 0.15689,-3.226934 z m 13.52768,0.942927 v -3.025823 l -2.88239,-1.736677 c -1.58532,-0.955172 -2.95454,-1.736677 -3.04271,-1.736677 -0.0882,0 -0.16032,1.310853 -0.16032,2.913007 0,2.448791 0.0738,2.975382 0.46302,3.304423 0.55949,0.472967 5.14387,3.247501 5.42396,3.282661 0.10914,0.0137 0.19844,-1.336711 0.19844,-3.000914 z M 101.67469,88.677344 101.5424,85.10305 98.680768,83.385148 c -1.57389,-0.944845 -2.91335,-1.717901 -2.97656,-1.717901 -0.0632,0 -0.11493,1.599302 -0.11493,3.554005 v 3.554007 l 2.84427,1.728776 c 1.56435,0.950828 2.963332,1.733013 3.108852,1.738192 0.17009,0.0061 0.21733,-1.267187 0.13229,-3.564883 z M -8.1273923,87.752663 c 0,-2.116666 -0.10176,-3.439584 -0.26458,-3.439584 -0.16282,0 -0.26458,1.322918 -0.26458,3.439584 0,2.116666 0.10176,3.439583 0.26458,3.439583 0.16282,0 0.26458,-1.322917 0.26458,-3.439583 z M 122.31219,85.434748 v -3.111664 l -2.05052,-1.226334 c -1.12779,-0.674484 -2.5009,-1.490953 -3.05137,-1.814375 l -1.00086,-0.588041 0.0748,3.129951 0.0748,3.129951 2.91041,1.782651 c 1.60073,0.980457 2.94019,1.788697 2.97657,1.796087 0.0364,0.0074 0.0661,-1.38681 0.0661,-3.098227 z m -27.309732,-0.878815 -0.0746,-3.285561 -1.45521,-0.984117 c -0.80037,-0.541263 -1.54451,-0.987748 -1.65365,-0.992187 -0.10914,-0.0044 -0.19843,1.589699 -0.19843,3.54253 v 3.5506 l 1.52135,0.931959 c 0.83675,0.512578 1.61448,0.839795 1.72829,0.727149 0.11382,-0.112645 0.17335,-1.683313 0.13229,-3.490373 z m 13.551402,0.188603 v -3.537291 l -2.8906,-1.730099 c -1.58982,-0.951554 -2.95904,-1.661648 -3.0427,-1.577985 -0.22382,0.223815 -0.17755,6.497246 0.0504,6.830038 0.21968,0.320762 5.37809,3.540155 5.68449,3.547727 0.10914,0.0027 0.19844,-1.586878 0.19844,-3.532389 z m -6.98322,-7.464731 c -0.13159,-0.34292 -5.314212,-3.550058 -5.736772,-3.550058 -0.16085,0 -0.23181,1.336468 -0.18613,3.505729 l 0.0738,3.505729 2.91041,1.751277 2.910422,1.751278 0.0744,-3.324785 c 0.0409,-1.828632 0.0202,-3.466258 -0.0462,-3.63917 z m 13.95384,5.115046 c 0.28538,-4.007583 0.30525,-3.967146 -2.90144,-5.905905 -1.42692,-0.862716 -2.74763,-1.663788 -2.93491,-1.780159 -0.27043,-0.168032 -0.34052,0.437702 -0.34052,2.942707 v 3.154291 l 2.84427,1.730983 c 1.56435,0.952041 2.92341,1.741182 3.02013,1.753648 0.0967,0.01246 0.23734,-0.840539 0.31247,-1.895565 z m -20.464372,-5.63503 c 0,-3.72635 -0.0233,-3.776596 -2.36355,-5.088496 l -1.07603,-0.603212 0.005,3.645921 0.005,3.645921 1.38443,0.836593 c 0.76144,0.460127 1.53326,0.84708 1.71516,0.859896 0.24825,0.01749 0.33073,-0.804643 0.33073,-3.296623 z m 13.493752,0.294102 v -3.025824 l -2.88239,-1.736676 c -1.58532,-0.955172 -2.95454,-1.736676 -3.04271,-1.736676 -0.24835,0 -0.18107,5.643024 0.072,6.042332 0.228,0.359694 5.29159,3.476349 5.65462,3.480434 0.10914,0.0012 0.19844,-1.359387 0.19844,-3.02359 z m -6.87917,-4.054591 v -3.111655 l -2.050522,-1.226334 c -1.12778,-0.674484 -2.497,-1.488651 -3.04271,-1.809261 l -0.99218,-0.582928 v 3.139663 3.139663 l 2.97656,1.779279 c 1.637112,0.978604 3.006332,1.780173 3.042712,1.781264 0.0364,0.0011 0.0661,-1.398266 0.0661,-3.109681 z M 95.060108,68.89677 v -2.980894 l -1.43041,-0.855565 c -0.78672,-0.47056 -1.56063,-0.855565 -1.71979,-0.855565 -0.19232,0 -0.28938,0.999179 -0.28938,2.978942 v 2.978941 l 1.38906,0.848594 c 0.76398,0.466728 1.53789,0.85261 1.71979,0.857518 0.24554,0.0066 0.33073,-0.758887 0.33073,-2.971971 z M 508.60385,225.4683 V 136.436 h 14.09514 14.09514 l 0.89981,5.41661 c 0.49489,2.97913 0.98402,5.55288 1.08696,5.71944 0.12665,0.20492 3.29274,-1.12534 9.79209,-4.11422 10.75977,-4.94813 11.77665,-5.36321 15.32877,-6.25704 2.48118,-0.62435 2.68044,-0.63246 15.47813,-0.62979 l 12.96458,0.003 2.36819,0.73912 c 2.86445,0.89401 5.7692,2.37814 8.08285,4.1298 0.94589,0.71613 5.01032,4.61533 9.03208,8.6649 9.17667,9.24013 10.63657,11.33195 12.20777,17.49191 l 0.58827,2.30635 v 29.36876 29.36875 l -0.59833,2.34871 c -0.69297,2.72021 -2.15978,5.98792 -3.76986,8.39836 -0.64963,0.97256 -4.39354,4.9772 -8.83082,9.44581 -8.41257,8.47198 -10.47758,10.14157 -14.42741,11.66478 -4.62619,1.78405 -3.09063,1.69603 -31.4418,1.80232 l -25.73073,0.0965 v 21.74802 21.74803 l -4.29647,4.3024 -4.29647,4.30239 h -11.31395 -11.31394 z m 75.02474,8.06395 c 1.00354,-0.38155 8.71651,-7.78127 9.22283,-8.84826 0.37303,-0.78609 0.41909,-3.57733 0.41909,-25.39382 0,-23.58626 -0.019,-24.54769 -0.5042,-25.49231 -0.27731,-0.53991 -2.21595,-2.66576 -4.30809,-4.72411 -2.89393,-2.84719 -4.055,-3.81693 -4.85361,-4.05381 -0.69949,-0.20748 -2.81524,-0.28298 -6.34139,-0.22629 l -5.29167,0.0851 -16.07343,7.5166 -16.07344,7.51661 v 26.94538 26.94538 H 561.371 c 14.03437,0 21.79429,-0.0943 22.25759,-0.27043 z m -210.78939,28.5711 c -3.97748,-0.46458 -7.75088,-1.88846 -11.2349,-4.23946 -2.65979,-1.7948 -27.95336,-26.5838 -30.29286,-29.68857 -3.05701,-4.05694 -4.54556,-8.12487 -5.00848,-13.68723 -0.33579,-4.03462 -0.33579,-84.33621 0,-88.37084 0.46317,-5.56531 1.95131,-9.63006 5.01341,-13.69377 2.34585,-3.11318 27.61751,-27.88005 30.28494,-29.680011 2.62567,-1.771783 4.88751,-2.801159 8.09325,-3.683276 l 2.51658,-0.692483 31.08854,-0.08479 c 22.00853,-0.06002 31.85775,0.003 33.72218,0.215922 4.66334,0.532462 9.21524,2.36539 12.90884,5.198048 1.5901,1.219459 25.68246,24.89071 27.82548,27.33911 2.58996,2.95904 4.5614,6.81411 5.65069,11.04971 0.42634,1.6578 0.45843,5.03297 0.45843,48.21696 0,51.56236 0.14437,47.24765 -1.74483,52.14651 -1.65421,4.28951 -2.87676,5.72506 -15.89663,18.66616 -13.45978,13.37836 -15.62537,15.43495 -17.69026,16.79987 -3.42868,2.2664 -7.24679,3.68367 -11.23494,4.17037 -2.76022,0.33684 -61.58885,0.35306 -64.45944,0.0178 z m 56.25735,-31.3916 c 1.55527,-0.8485 20.38492,-19.81434 20.89269,-21.0438 0.35892,-0.86904 0.40627,-5.45732 0.40627,-39.36528 0,-33.90795 -0.0473,-38.49624 -0.40627,-39.36527 -0.50777,-1.22946 -19.33742,-20.1953 -20.89269,-21.0438 l -1.05833,-0.57739 -22.0815,-0.0735 c -15.50757,-0.0516 -22.51806,0.0146 -23.54791,0.22252 l -1.46642,0.29602 -10.13889,10.09623 c -5.57639,5.55293 -10.30913,10.41774 -10.51719,10.8107 -0.56973,1.07601 -0.56847,78.19657 10e-4,79.26899 0.20878,0.39296 4.8973,5.22381 10.41895,10.73524 9.29904,9.28183 10.1344,10.04658 11.32822,10.37071 1.02862,0.27927 5.80337,0.33944 23.64616,0.29797 l 22.35729,-0.0519 z m 252.34627,31.38991 c -4.32995,-0.5789 -8.61643,-2.33543 -12.13413,-4.9724 -3.15775,-2.36712 -15.88017,-15.32228 -17.50555,-17.82578 -1.70532,-2.62662 -2.91083,-5.54344 -3.52906,-8.53882 -0.4626,-2.24132 -0.49266,-4.14676 -0.49593,-31.43512 -0.004,-31.89256 -0.0624,-30.61152 1.61106,-35.23631 1.459,-4.03214 3.31839,-6.45772 10.52255,-13.72666 3.58382,-3.61606 7.4637,-7.3365 8.62194,-8.26766 2.57196,-2.06771 6.65179,-4.15332 9.66806,-4.94233 2.24696,-0.58776 2.27093,-0.58829 26.98749,-0.58829 h 24.73854 l 2.36037,0.73957 c 2.70997,0.8491 5.28955,2.0879 7.64207,3.66998 1.97578,1.32871 15.30794,14.46611 17.1398,16.88941 2.73265,3.61491 4.39254,7.80731 4.97591,12.56771 0.1833,1.49568 0.2921,8.36157 0.29256,18.46197 l 7.5e-4,16.0807 -4.29948,4.48711 -4.29948,4.48711 -37.37239,0.004 -37.37239,0.004 v 4.771 c 0,3.69118 0.0921,4.99363 0.40704,5.75468 0.49871,1.20523 7.24731,8.08131 8.6444,8.80769 0.9377,0.48753 1.69199,0.51038 16.84995,0.51038 10.56001,0 16.11748,-0.0941 16.61315,-0.28119 0.40965,-0.15466 3.42707,-2.95262 6.70537,-6.21771 3.2783,-3.26509 6.06015,-5.93652 6.1819,-5.93652 0.43157,0 21.06276,20.44946 21.06276,20.87723 0,0.61649 -13.8283,14.28629 -15.7427,15.56227 -2.90891,1.93881 -5.48922,3.06058 -9.12813,3.96839 -1.50966,0.37662 -4.51617,0.43629 -24.60625,0.48833 -12.58755,0.0326 -23.63063,-0.0402 -24.54018,-0.16182 z m 49.41101,-81.95761 v -5.50445 l -0.76013,-1.17628 c -1.09879,-1.70035 -7.42182,-7.83119 -8.57255,-8.312 -0.83238,-0.34779 -3.14788,-0.4049 -16.41621,-0.4049 -10.71279,0 -15.72278,0.091 -16.34651,0.29703 -1.11183,0.36721 -8.85388,7.91157 -9.39317,9.15332 -0.27598,0.63547 -0.36975,2.19561 -0.36975,6.15157 v 5.30016 h 25.92916 25.92916 z m 53.44584,19.26279 V 136.436 h 13.87863 13.87864 l 0.18371,0.99219 c 0.10105,0.5457 0.61246,3.14339 1.13647,5.77264 l 0.95275,4.78045 9.92188,-4.58572 c 15.18697,-7.01917 13.96502,-6.7391 30.03416,-6.88381 11.53198,-0.10385 12.62264,-0.0746 14.95162,0.40119 3.13588,0.64062 5.90755,1.7823 8.61397,3.54818 2.40629,1.57006 14.89166,13.72647 17.74055,17.27314 1.89651,2.36102 3.73613,5.86852 4.64912,8.86424 l 0.60476,1.98438 0.0718,46.8974 0.0718,46.8974 h -15.6147 -15.6147 v -43.66939 c 0,-37.22741 -0.0555,-43.7748 -0.37599,-44.38387 -0.20679,-0.39295 -2.32015,-2.63923 -4.69635,-4.99173 -3.46858,-3.43398 -4.50294,-4.31093 -5.24641,-4.44798 -0.50932,-0.0939 -3.42635,-0.13365 -6.48229,-0.0884 l -5.55625,0.0824 -15.875,7.44654 -15.875,7.44654 -0.067,41.30295 -0.067,41.30294 h -15.60958 -15.60959 z m 148.96149,58.90099 c -5.13904,-2.33471 -8.89139,-4.18748 -8.93134,-4.40998 -0.0379,-0.21105 14.02807,-40.03153 31.25767,-88.48997 l 31.32656,-88.106248 22.79525,-0.06762 22.7953,-0.06762 0.3504,0.86137 c 1.2012,2.952757 62.6163,176.214948 62.5414,176.439708 -0.051,0.15273 -3.8279,1.99686 -8.3933,4.09806 l -8.3007,3.82037 -7.3029,-0.0703 -7.3028,-0.0703 -9.7957,-27.25209 -9.7956,-27.25208 -33.3476,-0.0672 -33.34751,-0.0672 -9.80944,27.31924 -9.80943,27.31925 -8.0339,0.0444 -8.0339,0.0444 z m 101.32724,-81.98589 c -0.062,-0.57347 -23.2926,-63.30156 -23.4434,-63.30156 -0.1802,0 -23.33825,62.59694 -23.36985,63.16927 -0.01,0.10914 10.5261,0.19843 23.40465,0.19843 12.8786,0 23.4125,-0.0298 23.4086,-0.0661 z m 114.7039,85.76898 c -4.5532,-0.53619 -9.5279,-2.66178 -13.3026,-5.68391 -3.265,-2.61403 -14.2223,-13.93225 -16.2592,-16.79472 -1.9001,-2.67022 -3.1488,-5.31142 -3.8553,-8.15447 -0.3991,-1.6062 -0.4429,-7.89414 -0.5124,-73.62623 l -0.076,-71.870034 4.5284,-4.396108 4.5284,-4.396108 h 11.2153 11.2153 l 0.069,73.35572 c 0.064,68.15996 0.1,73.41196 0.5134,74.14949 0.6559,1.17021 8.1628,8.52697 9.0311,8.85056 0.4696,0.17499 4.3072,0.27757 10.3849,0.27757 h 9.6401 v 14.2875 14.2875 l -12.6339,-0.0343 c -6.9486,-0.0189 -13.4673,-0.13247 -14.4859,-0.25243 z m 75.274,0.0102 c -3.7711,-0.48864 -7.7191,-1.96069 -11.0309,-4.11296 -2.1655,-1.40731 -16.6959,-15.8857 -18.3675,-18.30171 -1.6775,-2.42461 -2.7547,-4.79475 -3.6349,-7.99742 l -0.6915,-2.51658 -0.084,-28.31042 c -0.085,-28.71021 -0.034,-30.67232 0.8971,-34.39584 0.5532,-2.21226 2.712,-6.54846 4.2811,-8.59896 0.7238,-0.94589 4.6354,-4.99401 8.6924,-8.99583 6.0831,-6.00047 7.7841,-7.52663 9.7027,-8.70542 2.5126,-1.54375 6.4095,-3.0093 9.1772,-3.45133 1.0935,-0.17464 10.1025,-0.27413 24.7385,-0.27319 25.675,0.002 25.3813,-0.0166 29.8883,1.85963 4.0983,1.70612 6.3032,3.4649 14.0572,11.21277 3.9426,3.93951 7.7181,7.94518 8.3901,8.90149 1.5909,2.26433 3.2044,5.66439 3.9459,8.31542 0.5825,2.08276 0.5934,2.40776 0.6744,20.28989 l 0.082,18.17323 -4.2761,4.3816 -4.2762,4.3816 -37.3398,0.067 -37.3399,0.0671 -0.073,3.95738 c -0.041,2.22958 0.057,4.59769 0.2263,5.42396 0.2881,1.40901 0.4571,1.62613 4.3069,5.53158 2.2038,2.23575 4.3901,4.23004 4.8584,4.43177 0.6945,0.29918 3.7934,0.36677 16.8154,0.36677 h 15.964 l 1.1762,-0.76463 c 0.647,-0.42055 3.5565,-3.15899 6.4655,-6.08542 3.1819,-3.20094 5.4898,-5.32079 5.7927,-5.32079 0.5593,0 20.8817,19.96438 21.0092,20.63913 0.1181,0.62465 -13.7052,14.17358 -16.0168,15.6989 -2.5069,1.65427 -4.9044,2.72415 -8.0014,3.57067 l -2.5166,0.68786 -22.8865,0.0478 c -12.5875,0.0263 -23.6603,-0.0525 -24.6062,-0.17505 z m 49.4771,-81.62051 c 0,-4.04809 -0.088,-5.38102 -0.407,-6.15157 -0.5412,-1.30796 -7.5806,-8.41772 -8.9857,-9.07556 -0.9964,-0.46643 -1.972,-0.4958 -16.6514,-0.50127 -15.07,-0.006 -15.6298,0.012 -16.6886,0.52452 -0.6498,0.31456 -2.6606,2.11765 -4.9425,4.43177 -3.6103,3.6614 -3.8654,3.9877 -4.1474,5.30352 -0.3191,1.48972 -0.4219,10.16209 -0.124,10.46007 0.097,0.097 11.8247,0.17639 26.0615,0.17639 h 25.8851 z m 47.2942,78.2529 c -4.1837,-1.99638 -7.6067,-3.7776 -7.6067,-3.95826 0,-0.18066 10.6065,-12.77919 23.57,-27.99673 12.9636,-15.21755 23.5099,-27.8099 23.4363,-27.983 -0.074,-0.17311 -10.7412,-12.51865 -23.7059,-27.43454 -12.9645,-14.91589 -23.5405,-27.29029 -23.5022,-27.49868 0.039,-0.21243 3.4324,-1.92698 7.7236,-3.9026 l 7.6537,-3.52372 h 8.6595 8.6594 l 16.6273,17.77795 c 9.145,9.77788 16.7558,17.94882 16.9129,18.15765 0.2289,0.30424 3.5934,-3.22597 16.9334,-17.7677 l 16.6476,-18.14738 8.573,-0.0103 8.5729,-0.0103 7.5005,3.48591 c 4.1253,1.91726 7.5005,3.6226 7.5005,3.78965 0,0.16705 -10.4194,12.49463 -23.1542,27.39463 -12.7348,14.89999 -23.123,27.18093 -23.0849,27.29097 0.038,0.11004 10.904,12.71746 24.1464,28.01648 13.2424,15.29903 24.0771,28.00007 24.0771,28.22455 0,0.27602 -2.5265,1.59034 -7.8052,4.06046 l -7.8052,3.65234 -8.3344,0.009 c -4.5839,0.005 -8.4633,-0.0782 -8.6208,-0.1851 -0.1575,-0.10691 -8.0432,-8.56057 -17.5237,-18.78591 -9.4806,-10.22533 -17.2982,-18.61924 -17.3726,-18.65312 -0.074,-0.0339 -7.2912,7.79652 -16.0376,17.40089 -8.7463,9.60438 -16.4958,18.08758 -17.2211,18.85156 l -1.3187,1.38907 -8.2471,-0.007 -8.247,-0.007 z"
       id="path4"
       clip-path="url(#clipPath1)" />
  </g>
</svg>
